<svg xmlns="http://www.w3.org/2000/svg" xmlns:xlink="http://www.w3.org/1999/xlink" width="500" zoomAndPan="magnify" viewBox="0 0 375 374.999991" height="500" preserveAspectRatio="xMidYMid meet" version="1.0"><defs><g/><clipPath id="fb8513c86d"><path d="M 72.0625 37.5 L 303 37.5 L 303 268.5 L 72.0625 268.5 Z M 72.0625 37.5 " clip-rule="nonzero"/></clipPath></defs><rect x="-37.5" width="450" fill="#ffffff" y="-37.499999" height="449.999989" fill-opacity="1"/><rect x="-37.5" width="450" fill="#1d2a3a" y="-37.499999" height="449.999989" fill-opacity="1"/><path fill="#d3ae8b" d="M 206.300781 43.832031 C 206.300781 43.617188 206.128906 43.445312 205.914062 43.445312 C 205.703125 43.445312 205.527344 43.617188 205.527344 43.832031 C 205.527344 44.042969 205.703125 44.214844 205.914062 44.214844 C 206.128906 44.214844 206.300781 44.042969 206.300781 43.832031 Z M 202.515625 43.226562 C 202.515625 42.859375 202.21875 42.554688 201.84375 42.554688 C 201.472656 42.554688 201.171875 42.859375 201.171875 43.226562 C 201.171875 43.597656 201.472656 43.898438 201.84375 43.898438 C 202.21875 43.898438 202.515625 43.597656 202.515625 43.226562 Z M 198.621094 42.773438 C 198.621094 42.296875 198.234375 41.910156 197.753906 41.910156 C 197.277344 41.910156 196.890625 42.296875 196.890625 42.773438 C 196.890625 43.25 197.277344 43.636719 197.753906 43.636719 C 198.234375 43.636719 198.621094 43.25 198.621094 42.773438 Z M 194.632812 42.472656 C 194.632812 41.933594 194.195312 41.492188 193.652344 41.492188 C 193.109375 41.492188 192.667969 41.933594 192.667969 42.472656 C 192.667969 43.015625 193.109375 43.457031 193.652344 43.457031 C 194.195312 43.457031 194.632812 43.015625 194.632812 42.472656 Z M 190.574219 42.324219 C 190.574219 41.753906 190.109375 41.289062 189.539062 41.289062 C 188.96875 41.289062 188.507812 41.753906 188.507812 42.324219 C 188.507812 42.894531 188.96875 43.355469 189.539062 43.355469 C 190.109375 43.355469 190.574219 42.894531 190.574219 42.324219 Z M 186.457031 42.324219 C 186.457031 41.753906 185.996094 41.292969 185.425781 41.292969 C 184.855469 41.292969 184.394531 41.753906 184.394531 42.324219 C 184.394531 42.894531 184.855469 43.355469 185.425781 43.355469 C 185.996094 43.355469 186.457031 42.894531 186.457031 42.324219 Z M 182.300781 42.472656 C 182.300781 41.933594 181.863281 41.496094 181.320312 41.496094 C 180.78125 41.496094 180.34375 41.933594 180.34375 42.472656 C 180.34375 43.015625 180.78125 43.453125 181.320312 43.453125 C 181.863281 43.453125 182.300781 43.015625 182.300781 42.472656 Z M 178.078125 42.777344 C 178.078125 42.300781 177.691406 41.917969 177.21875 41.917969 C 176.742188 41.917969 176.355469 42.300781 176.355469 42.777344 C 176.355469 43.25 176.742188 43.636719 177.21875 43.636719 C 177.691406 43.636719 178.078125 43.25 178.078125 42.777344 Z M 173.796875 43.230469 C 173.796875 42.859375 173.5 42.5625 173.132812 42.5625 C 172.757812 42.5625 172.460938 42.859375 172.460938 43.230469 C 172.460938 43.597656 172.757812 43.898438 173.132812 43.898438 C 173.5 43.898438 173.796875 43.597656 173.796875 43.230469 Z M 169.058594 44.21875 C 168.847656 44.21875 168.675781 44.046875 168.675781 43.835938 C 168.675781 43.625 168.847656 43.453125 169.058594 43.453125 C 169.273438 43.453125 169.445312 43.625 169.445312 43.835938 C 169.445312 44.046875 169.273438 44.21875 169.058594 44.21875 " fill-opacity="1" fill-rule="nonzero"/><path fill="#d3ae8b" d="M 149.230469 49.046875 C 149.125 48.863281 148.886719 48.800781 148.703125 48.90625 C 148.519531 49.015625 148.453125 49.25 148.558594 49.433594 C 148.667969 49.617188 148.90625 49.679688 149.089844 49.574219 C 149.273438 49.46875 149.335938 49.230469 149.230469 49.046875 Z M 145.652344 50.414062 C 145.464844 50.09375 145.054688 49.984375 144.734375 50.167969 C 144.410156 50.355469 144.300781 50.769531 144.484375 51.085938 C 144.671875 51.414062 145.085938 51.519531 145.40625 51.335938 C 145.730469 51.148438 145.839844 50.738281 145.652344 50.414062 Z M 142.050781 51.972656 C 141.8125 51.558594 141.28125 51.414062 140.871094 51.660156 C 140.453125 51.894531 140.3125 52.425781 140.554688 52.835938 C 140.792969 53.25 141.320312 53.394531 141.734375 53.15625 C 142.144531 52.914062 142.289062 52.386719 142.050781 51.972656 Z M 138.449219 53.707031 C 138.175781 53.238281 137.574219 53.078125 137.109375 53.347656 C 136.636719 53.617188 136.476562 54.21875 136.746094 54.6875 C 137.015625 55.15625 137.617188 55.320312 138.085938 55.046875 C 138.554688 54.777344 138.71875 54.171875 138.449219 53.707031 Z M 134.855469 55.605469 C 134.570312 55.113281 133.9375 54.941406 133.441406 55.226562 C 132.949219 55.511719 132.78125 56.148438 133.066406 56.640625 C 133.351562 57.128906 133.980469 57.300781 134.476562 57.015625 C 134.96875 56.730469 135.140625 56.101562 134.855469 55.605469 Z M 131.289062 57.664062 C 131.003906 57.171875 130.375 57 129.882812 57.289062 C 129.390625 57.570312 129.21875 58.203125 129.503906 58.695312 C 129.789062 59.191406 130.417969 59.359375 130.914062 59.074219 C 131.40625 58.789062 131.578125 58.15625 131.289062 57.664062 Z M 127.765625 59.875 C 127.496094 59.40625 126.898438 59.246094 126.429688 59.515625 C 125.964844 59.785156 125.804688 60.382812 126.070312 60.851562 C 126.34375 61.320312 126.9375 61.476562 127.40625 61.207031 C 127.875 60.9375 128.035156 60.34375 127.765625 59.875 Z M 124.261719 62.246094 C 124.023438 61.832031 123.496094 61.691406 123.085938 61.929688 C 122.671875 62.167969 122.53125 62.695312 122.769531 63.109375 C 123.007812 63.519531 123.535156 63.65625 123.949219 63.417969 C 124.359375 63.183594 124.5 62.65625 124.261719 62.246094 Z M 120.78125 64.777344 C 120.597656 64.457031 120.1875 64.347656 119.867188 64.53125 C 119.546875 64.71875 119.4375 65.125 119.621094 65.445312 C 119.808594 65.769531 120.21875 65.878906 120.539062 65.691406 C 120.859375 65.507812 120.964844 65.097656 120.78125 64.777344 Z M 117.171875 68.003906 C 116.988281 68.109375 116.753906 68.046875 116.648438 67.863281 C 116.542969 67.683594 116.605469 67.445312 116.789062 67.339844 C 116.972656 67.234375 117.207031 67.296875 117.3125 67.480469 C 117.421875 67.660156 117.355469 67.898438 117.171875 68.003906 " fill-opacity="1" fill-rule="nonzero"/><path fill="#d3ae8b" d="M 102.414062 82.101562 C 102.226562 81.992188 101.992188 82.058594 101.882812 82.242188 C 101.777344 82.429688 101.84375 82.664062 102.027344 82.769531 C 102.210938 82.875 102.449219 82.8125 102.554688 82.628906 C 102.660156 82.441406 102.597656 82.207031 102.414062 82.101562 Z M 99.996094 85.074219 C 99.675781 84.890625 99.265625 85 99.078125 85.324219 C 98.894531 85.644531 99.003906 86.058594 99.324219 86.242188 C 99.648438 86.425781 100.058594 86.316406 100.242188 85.992188 C 100.429688 85.671875 100.324219 85.261719 99.996094 85.074219 Z M 97.65625 88.222656 C 97.246094 87.984375 96.714844 88.128906 96.476562 88.539062 C 96.238281 88.953125 96.378906 89.484375 96.792969 89.71875 C 97.207031 89.957031 97.734375 89.820312 97.976562 89.40625 C 98.210938 88.992188 98.070312 88.460938 97.65625 88.222656 Z M 95.40625 91.527344 C 94.933594 91.253906 94.335938 91.417969 94.066406 91.886719 C 93.792969 92.355469 93.949219 92.957031 94.421875 93.226562 C 94.890625 93.496094 95.492188 93.335938 95.761719 92.867188 C 96.035156 92.398438 95.871094 91.796875 95.40625 91.527344 Z M 93.246094 94.96875 C 92.746094 94.679688 92.117188 94.851562 91.828125 95.347656 C 91.546875 95.839844 91.71875 96.472656 92.210938 96.757812 C 92.703125 97.042969 93.335938 96.871094 93.621094 96.378906 C 93.90625 95.886719 93.734375 95.253906 93.246094 94.96875 Z M 91.183594 98.53125 C 90.691406 98.246094 90.0625 98.414062 89.777344 98.910156 C 89.492188 99.402344 89.660156 100.039062 90.152344 100.320312 C 90.648438 100.605469 91.277344 100.433594 91.5625 99.941406 C 91.847656 99.449219 91.679688 98.816406 91.183594 98.53125 Z M 89.238281 102.207031 C 88.773438 101.9375 88.171875 102.097656 87.902344 102.566406 C 87.632812 103.035156 87.792969 103.632812 88.257812 103.902344 C 88.730469 104.171875 89.324219 104.011719 89.597656 103.542969 C 89.863281 103.078125 89.707031 102.476562 89.238281 102.207031 Z M 87.386719 106.015625 C 86.976562 105.777344 86.449219 105.921875 86.214844 106.332031 C 85.976562 106.742188 86.117188 107.269531 86.527344 107.507812 C 86.9375 107.742188 87.464844 107.601562 87.707031 107.1875 C 87.941406 106.777344 87.796875 106.253906 87.386719 106.015625 Z M 85.640625 109.949219 C 85.324219 109.761719 84.910156 109.871094 84.726562 110.191406 C 84.539062 110.511719 84.652344 110.921875 84.972656 111.105469 C 85.292969 111.292969 85.703125 111.183594 85.886719 110.859375 C 86.070312 110.539062 85.964844 110.132812 85.640625 109.949219 Z M 84.125 114.546875 C 84.023438 114.730469 83.789062 114.789062 83.605469 114.6875 C 83.421875 114.582031 83.359375 114.347656 83.460938 114.164062 C 83.570312 113.980469 83.804688 113.917969 83.988281 114.023438 C 84.171875 114.125 84.234375 114.363281 84.125 114.546875 " fill-opacity="1" fill-rule="nonzero"/><path fill="#d3ae8b" d="M 78.394531 134.132812 C 78.179688 134.132812 78.007812 134.308594 78.007812 134.519531 C 78.007812 134.734375 78.179688 134.90625 78.394531 134.90625 C 78.609375 134.910156 78.78125 134.734375 78.78125 134.519531 C 78.78125 134.308594 78.609375 134.132812 78.394531 134.132812 Z M 77.789062 137.917969 C 77.417969 137.917969 77.117188 138.21875 77.117188 138.589844 C 77.117188 138.960938 77.417969 139.265625 77.792969 139.261719 C 78.164062 139.261719 78.464844 138.960938 78.460938 138.589844 C 78.464844 138.21875 78.164062 137.917969 77.789062 137.917969 Z M 77.339844 141.816406 C 76.863281 141.816406 76.472656 142.199219 76.472656 142.679688 C 76.472656 143.15625 76.859375 143.542969 77.339844 143.542969 C 77.816406 143.542969 78.203125 143.15625 78.207031 142.679688 C 78.203125 142.199219 77.816406 141.816406 77.339844 141.816406 Z M 77.039062 145.804688 C 76.496094 145.804688 76.058594 146.242188 76.058594 146.785156 C 76.058594 147.324219 76.496094 147.765625 77.039062 147.765625 C 77.578125 147.765625 78.019531 147.324219 78.019531 146.785156 C 78.019531 146.242188 77.578125 145.804688 77.039062 145.804688 Z M 76.886719 149.863281 C 76.316406 149.863281 75.855469 150.324219 75.851562 150.894531 C 75.855469 151.464844 76.320312 151.929688 76.886719 151.929688 C 77.457031 151.929688 77.921875 151.464844 77.921875 150.894531 C 77.917969 150.328125 77.457031 149.863281 76.886719 149.863281 Z M 76.886719 153.976562 C 76.320312 153.976562 75.855469 154.4375 75.855469 155.007812 C 75.859375 155.574219 76.320312 156.039062 76.886719 156.039062 C 77.457031 156.042969 77.917969 155.578125 77.921875 155.007812 C 77.921875 154.441406 77.460938 153.976562 76.886719 153.976562 Z M 77.039062 158.132812 C 76.5 158.132812 76.058594 158.570312 76.058594 159.113281 C 76.058594 159.652344 76.5 160.089844 77.039062 160.09375 C 77.582031 160.089844 78.015625 159.652344 78.015625 159.113281 C 78.015625 158.574219 77.582031 158.132812 77.039062 158.132812 Z M 77.339844 162.351562 C 76.863281 162.351562 76.476562 162.742188 76.484375 163.214844 C 76.484375 163.691406 76.867188 164.078125 77.339844 164.078125 C 77.816406 164.074219 78.199219 163.691406 78.203125 163.214844 C 78.203125 162.742188 77.816406 162.355469 77.339844 162.351562 Z M 77.796875 166.632812 C 77.425781 166.632812 77.121094 166.9375 77.121094 167.304688 C 77.125 167.675781 77.425781 167.976562 77.796875 167.976562 C 78.164062 167.972656 78.464844 167.675781 78.460938 167.304688 C 78.460938 166.933594 78.164062 166.632812 77.796875 166.632812 Z M 78.78125 171.375 C 78.785156 171.585938 78.613281 171.757812 78.402344 171.757812 C 78.1875 171.757812 78.015625 171.585938 78.011719 171.375 C 78.015625 171.164062 78.1875 170.992188 78.402344 170.988281 C 78.613281 170.988281 78.785156 171.164062 78.78125 171.375 " fill-opacity="1" fill-rule="nonzero"/><path fill="#d3ae8b" d="M 83.613281 191.203125 C 83.425781 191.3125 83.363281 191.546875 83.46875 191.734375 C 83.578125 191.917969 83.8125 191.980469 83.996094 191.871094 C 84.183594 191.769531 84.246094 191.53125 84.136719 191.34375 C 84.03125 191.164062 83.796875 191.097656 83.613281 191.203125 Z M 84.976562 194.785156 C 84.65625 194.96875 84.546875 195.378906 84.734375 195.703125 C 84.917969 196.023438 85.332031 196.132812 85.652344 195.949219 C 85.976562 195.761719 86.085938 195.347656 85.898438 195.027344 C 85.714844 194.710938 85.304688 194.59375 84.976562 194.785156 Z M 86.539062 198.382812 C 86.125 198.621094 85.980469 199.15625 86.222656 199.5625 C 86.457031 199.976562 86.988281 200.121094 87.402344 199.882812 C 87.816406 199.640625 87.957031 199.117188 87.722656 198.703125 C 87.480469 198.285156 86.949219 198.144531 86.539062 198.382812 Z M 88.269531 201.988281 C 87.804688 202.257812 87.640625 202.859375 87.914062 203.328125 C 88.183594 203.796875 88.78125 203.960938 89.25 203.6875 C 89.71875 203.417969 89.878906 202.816406 89.609375 202.347656 C 89.339844 201.875 88.738281 201.714844 88.269531 201.988281 Z M 90.171875 205.578125 C 89.671875 205.867188 89.507812 206.496094 89.792969 206.992188 C 90.078125 207.484375 90.710938 207.65625 91.203125 207.367188 C 91.695312 207.085938 91.867188 206.449219 91.582031 205.957031 C 91.296875 205.46875 90.664062 205.292969 90.171875 205.578125 Z M 92.226562 209.144531 C 91.738281 209.429688 91.566406 210.058594 91.851562 210.554688 C 92.136719 211.042969 92.769531 211.214844 93.261719 210.929688 C 93.753906 210.648438 93.921875 210.015625 93.636719 209.519531 C 93.355469 209.023438 92.722656 208.859375 92.226562 209.144531 Z M 94.4375 212.667969 C 93.96875 212.9375 93.808594 213.539062 94.078125 214.003906 C 94.351562 214.476562 94.949219 214.632812 95.417969 214.363281 C 95.882812 214.09375 96.046875 213.492188 95.773438 213.027344 C 95.503906 212.558594 94.90625 212.398438 94.4375 212.667969 Z M 96.808594 216.171875 C 96.398438 216.410156 96.257812 216.941406 96.496094 217.347656 C 96.734375 217.761719 97.261719 217.902344 97.671875 217.664062 C 98.082031 217.425781 98.21875 216.902344 97.984375 216.488281 C 97.746094 216.078125 97.222656 215.933594 96.808594 216.171875 Z M 99.34375 219.652344 C 99.023438 219.835938 98.910156 220.25 99.09375 220.566406 C 99.285156 220.890625 99.695312 220.996094 100.015625 220.8125 C 100.332031 220.628906 100.441406 220.21875 100.253906 219.898438 C 100.070312 219.578125 99.664062 219.46875 99.34375 219.652344 Z M 102.566406 223.265625 C 102.675781 223.445312 102.613281 223.679688 102.429688 223.785156 C 102.246094 223.890625 102.011719 223.828125 101.902344 223.648438 C 101.800781 223.464844 101.863281 223.230469 102.046875 223.125 C 102.226562 223.015625 102.464844 223.078125 102.566406 223.265625 " fill-opacity="1" fill-rule="nonzero"/><path fill="#d3ae8b" d="M 116.664062 238.023438 C 116.558594 238.207031 116.621094 238.445312 116.808594 238.550781 C 116.992188 238.65625 117.226562 238.589844 117.332031 238.410156 C 117.441406 238.222656 117.375 237.988281 117.191406 237.878906 C 117.011719 237.773438 116.773438 237.835938 116.664062 238.023438 Z M 119.636719 240.4375 C 119.449219 240.757812 119.566406 241.167969 119.886719 241.355469 C 120.207031 241.539062 120.621094 241.433594 120.804688 241.109375 C 120.992188 240.785156 120.882812 240.375 120.554688 240.191406 C 120.238281 240.003906 119.824219 240.109375 119.636719 240.4375 Z M 122.789062 242.777344 C 122.550781 243.191406 122.691406 243.71875 123.105469 243.957031 C 123.519531 244.195312 124.046875 244.058594 124.285156 243.644531 C 124.527344 243.230469 124.382812 242.699219 123.972656 242.457031 C 123.554688 242.222656 123.027344 242.359375 122.789062 242.777344 Z M 126.089844 245.027344 C 125.820312 245.496094 125.980469 246.101562 126.453125 246.367188 C 126.917969 246.640625 127.519531 246.484375 127.789062 246.011719 C 128.0625 245.542969 127.902344 244.941406 127.433594 244.671875 C 126.960938 244.402344 126.359375 244.5625 126.089844 245.027344 Z M 129.535156 247.1875 C 129.25 247.6875 129.417969 248.316406 129.910156 248.605469 C 130.40625 248.886719 131.035156 248.71875 131.320312 248.222656 C 131.605469 247.734375 131.4375 247.097656 130.945312 246.808594 C 130.449219 246.53125 129.816406 246.699219 129.535156 247.1875 Z M 133.097656 249.25 C 132.8125 249.742188 132.980469 250.375 133.472656 250.660156 C 133.96875 250.9375 134.601562 250.773438 134.882812 250.28125 C 135.167969 249.789062 135 249.160156 134.503906 248.871094 C 134.011719 248.582031 133.382812 248.753906 133.097656 249.25 Z M 136.773438 251.195312 C 136.5 251.664062 136.660156 252.261719 137.128906 252.535156 C 137.601562 252.804688 138.195312 252.640625 138.46875 252.175781 C 138.738281 251.707031 138.574219 251.105469 138.109375 250.839844 C 137.640625 250.566406 137.042969 250.730469 136.773438 251.195312 Z M 140.578125 253.050781 C 140.339844 253.457031 140.480469 253.984375 140.894531 254.21875 C 141.308594 254.453125 141.835938 254.316406 142.074219 253.910156 C 142.308594 253.496094 142.164062 252.972656 141.753906 252.730469 C 141.339844 252.496094 140.816406 252.636719 140.578125 253.050781 Z M 144.511719 254.789062 C 144.328125 255.113281 144.4375 255.527344 144.753906 255.710938 C 145.082031 255.894531 145.492188 255.78125 145.675781 255.460938 C 145.855469 255.144531 145.746094 254.734375 145.425781 254.550781 C 145.101562 254.367188 144.699219 254.46875 144.511719 254.789062 Z M 149.113281 256.308594 C 149.296875 256.414062 149.359375 256.644531 149.253906 256.828125 C 149.148438 257.011719 148.914062 257.078125 148.726562 256.972656 C 148.542969 256.863281 148.480469 256.628906 148.585938 256.445312 C 148.691406 256.261719 148.925781 256.199219 149.113281 256.308594 " fill-opacity="1" fill-rule="nonzero"/><path fill="#d3ae8b" d="M 168.699219 262.039062 C 168.695312 262.253906 168.871094 262.429688 169.085938 262.429688 C 169.300781 262.429688 169.472656 262.253906 169.472656 262.039062 C 169.472656 261.828125 169.300781 261.652344 169.085938 261.652344 C 168.875 261.652344 168.699219 261.828125 168.699219 262.039062 Z M 172.480469 262.644531 C 172.480469 263.015625 172.785156 263.316406 173.15625 263.320312 C 173.527344 263.316406 173.832031 263.015625 173.828125 262.644531 C 173.828125 262.273438 173.527344 261.972656 173.152344 261.972656 C 172.785156 261.96875 172.480469 262.269531 172.480469 262.644531 Z M 176.378906 263.097656 C 176.378906 263.574219 176.765625 263.960938 177.242188 263.960938 C 177.722656 263.960938 178.109375 263.578125 178.105469 263.097656 C 178.109375 262.617188 177.722656 262.230469 177.242188 262.226562 C 176.765625 262.230469 176.378906 262.617188 176.378906 263.097656 Z M 180.367188 263.394531 C 180.367188 263.9375 180.808594 264.375 181.347656 264.375 C 181.890625 264.375 182.328125 263.941406 182.328125 263.394531 C 182.328125 262.855469 181.890625 262.417969 181.347656 262.417969 C 180.808594 262.417969 180.367188 262.855469 180.367188 263.394531 Z M 184.429688 263.546875 C 184.429688 264.121094 184.890625 264.578125 185.460938 264.582031 C 186.03125 264.578125 186.492188 264.117188 186.492188 263.546875 C 186.492188 262.976562 186.03125 262.511719 185.460938 262.511719 C 184.890625 262.519531 184.429688 262.976562 184.429688 263.546875 Z M 188.542969 263.546875 C 188.542969 264.117188 189.003906 264.578125 189.574219 264.582031 C 190.144531 264.578125 190.605469 264.117188 190.605469 263.546875 C 190.605469 262.976562 190.144531 262.519531 189.574219 262.511719 C 189.003906 262.511719 188.542969 262.972656 188.542969 263.546875 Z M 192.699219 263.394531 C 192.695312 263.9375 193.136719 264.375 193.679688 264.375 C 194.21875 264.371094 194.65625 263.9375 194.660156 263.394531 C 194.65625 262.855469 194.21875 262.417969 193.679688 262.421875 C 193.140625 262.417969 192.695312 262.855469 192.699219 263.394531 Z M 196.921875 263.097656 C 196.921875 263.570312 197.304688 263.957031 197.78125 263.953125 C 198.257812 263.949219 198.644531 263.566406 198.644531 263.09375 C 198.644531 262.617188 198.257812 262.234375 197.78125 262.234375 C 197.304688 262.234375 196.921875 262.617188 196.921875 263.097656 Z M 201.203125 262.636719 C 201.203125 263.007812 201.5 263.316406 201.871094 263.316406 C 202.238281 263.3125 202.539062 263.003906 202.539062 262.636719 C 202.539062 262.273438 202.238281 261.972656 201.867188 261.972656 C 201.5 261.972656 201.203125 262.269531 201.203125 262.636719 Z M 205.941406 261.652344 C 206.152344 261.652344 206.324219 261.820312 206.324219 262.03125 C 206.320312 262.246094 206.152344 262.417969 205.941406 262.421875 C 205.726562 262.417969 205.554688 262.246094 205.554688 262.03125 C 205.554688 261.824219 205.726562 261.652344 205.941406 261.652344 " fill-opacity="1" fill-rule="nonzero"/><path fill="#d3ae8b" d="M 225.769531 256.824219 C 225.875 257.007812 226.113281 257.070312 226.296875 256.964844 C 226.480469 256.859375 226.546875 256.621094 226.4375 256.4375 C 226.335938 256.25 226.097656 256.1875 225.914062 256.296875 C 225.726562 256.402344 225.664062 256.636719 225.769531 256.824219 Z M 229.347656 255.457031 C 229.535156 255.78125 229.945312 255.886719 230.269531 255.699219 C 230.589844 255.515625 230.703125 255.105469 230.515625 254.78125 C 230.328125 254.457031 229.917969 254.347656 229.59375 254.535156 C 229.273438 254.71875 229.160156 255.132812 229.347656 255.457031 Z M 232.953125 253.894531 C 233.1875 254.308594 233.71875 254.453125 234.128906 254.214844 C 234.546875 253.972656 234.6875 253.449219 234.445312 253.035156 C 234.207031 252.621094 233.679688 252.476562 233.265625 252.710938 C 232.855469 252.953125 232.710938 253.488281 232.953125 253.894531 Z M 236.554688 252.164062 C 236.824219 252.628906 237.421875 252.792969 237.894531 252.523438 C 238.363281 252.25 238.527344 251.652344 238.253906 251.183594 C 237.984375 250.710938 237.378906 250.550781 236.914062 250.824219 C 236.445312 251.09375 236.28125 251.699219 236.554688 252.164062 Z M 240.144531 250.261719 C 240.433594 250.757812 241.0625 250.929688 241.558594 250.640625 C 242.050781 250.355469 242.21875 249.722656 241.933594 249.230469 C 241.652344 248.742188 241.019531 248.566406 240.523438 248.851562 C 240.03125 249.144531 239.863281 249.769531 240.144531 250.261719 Z M 243.710938 248.207031 C 243.996094 248.699219 244.625 248.867188 245.117188 248.582031 C 245.609375 248.300781 245.78125 247.667969 245.492188 247.175781 C 245.210938 246.683594 244.582031 246.515625 244.085938 246.796875 C 243.59375 247.082031 243.425781 247.710938 243.710938 248.207031 Z M 247.230469 245.996094 C 247.5 246.464844 248.105469 246.625 248.570312 246.355469 C 249.039062 246.085938 249.199219 245.488281 248.929688 245.015625 C 248.65625 244.546875 248.058594 244.390625 247.59375 244.660156 C 247.125 244.925781 246.960938 245.53125 247.230469 245.996094 Z M 250.738281 243.628906 C 250.976562 244.035156 251.503906 244.179688 251.910156 243.9375 C 252.324219 243.699219 252.464844 243.175781 252.230469 242.765625 C 251.992188 242.351562 251.464844 242.214844 251.050781 242.449219 C 250.640625 242.6875 250.503906 243.214844 250.738281 243.628906 Z M 254.21875 241.09375 C 254.402344 241.410156 254.816406 241.523438 255.132812 241.339844 C 255.453125 241.152344 255.5625 240.738281 255.375 240.417969 C 255.191406 240.101562 254.785156 239.992188 254.464844 240.175781 C 254.140625 240.363281 254.035156 240.769531 254.21875 241.09375 Z M 257.832031 237.867188 C 258.007812 237.757812 258.246094 237.824219 258.351562 238.007812 C 258.453125 238.1875 258.394531 238.425781 258.214844 238.527344 C 258.027344 238.632812 257.792969 238.574219 257.6875 238.390625 C 257.582031 238.207031 257.644531 237.972656 257.832031 237.867188 " fill-opacity="1" fill-rule="nonzero"/><path fill="#d3ae8b" d="M 272.589844 223.769531 C 272.769531 223.878906 273.007812 223.8125 273.113281 223.625 C 273.222656 223.445312 273.15625 223.207031 272.972656 223.101562 C 272.792969 222.992188 272.554688 223.058594 272.449219 223.242188 C 272.339844 223.425781 272.402344 223.660156 272.589844 223.769531 Z M 275.003906 220.796875 C 275.328125 220.980469 275.734375 220.871094 275.921875 220.542969 C 276.109375 220.226562 276 219.8125 275.675781 219.625 C 275.355469 219.441406 274.941406 219.554688 274.757812 219.878906 C 274.570312 220.195312 274.675781 220.605469 275.003906 220.796875 Z M 277.34375 217.644531 C 277.757812 217.882812 278.285156 217.742188 278.519531 217.328125 C 278.761719 216.914062 278.621094 216.390625 278.207031 216.152344 C 277.792969 215.910156 277.261719 216.050781 277.023438 216.464844 C 276.789062 216.878906 276.929688 217.40625 277.34375 217.644531 Z M 279.597656 214.34375 C 280.0625 214.613281 280.664062 214.453125 280.9375 213.984375 C 281.207031 213.515625 281.046875 212.914062 280.578125 212.644531 C 280.113281 212.371094 279.507812 212.53125 279.238281 213.003906 C 278.964844 213.472656 279.125 214.078125 279.597656 214.34375 Z M 281.757812 210.898438 C 282.253906 211.1875 282.882812 211.019531 283.171875 210.523438 C 283.453125 210.03125 283.285156 209.398438 282.789062 209.109375 C 282.296875 208.828125 281.664062 208.992188 281.378906 209.488281 C 281.097656 209.984375 281.265625 210.617188 281.757812 210.898438 Z M 283.816406 207.335938 C 284.308594 207.621094 284.9375 207.453125 285.222656 206.960938 C 285.507812 206.46875 285.339844 205.835938 284.847656 205.554688 C 284.355469 205.265625 283.722656 205.4375 283.433594 205.933594 C 283.148438 206.417969 283.320312 207.050781 283.816406 207.335938 Z M 285.761719 203.660156 C 286.230469 203.933594 286.828125 203.773438 287.097656 203.304688 C 287.367188 202.835938 287.207031 202.238281 286.742188 201.964844 C 286.269531 201.699219 285.675781 201.859375 285.40625 202.328125 C 285.136719 202.792969 285.292969 203.394531 285.761719 203.660156 Z M 287.609375 199.859375 C 288.023438 200.09375 288.550781 199.953125 288.785156 199.539062 C 289.023438 199.125 288.882812 198.601562 288.472656 198.363281 C 288.0625 198.128906 287.535156 198.273438 287.296875 198.683594 C 287.058594 199.09375 287.199219 199.613281 287.609375 199.859375 Z M 289.359375 195.921875 C 289.679688 196.101562 290.089844 195.996094 290.273438 195.679688 C 290.457031 195.355469 290.347656 194.945312 290.027344 194.761719 C 289.707031 194.578125 289.296875 194.6875 289.113281 195.011719 C 288.929688 195.332031 289.039062 195.734375 289.359375 195.921875 Z M 290.875 191.324219 C 290.972656 191.136719 291.210938 191.074219 291.394531 191.179688 C 291.574219 191.292969 291.640625 191.523438 291.539062 191.707031 C 291.429688 191.886719 291.195312 191.953125 291.011719 191.847656 C 290.828125 191.742188 290.765625 191.503906 290.875 191.324219 " fill-opacity="1" fill-rule="nonzero"/><path fill="#d3ae8b" d="M 296.605469 171.734375 C 296.816406 171.734375 296.992188 171.5625 296.992188 171.347656 C 296.992188 171.136719 296.820312 170.960938 296.605469 170.960938 C 296.394531 170.957031 296.222656 171.136719 296.222656 171.347656 C 296.222656 171.5625 296.394531 171.734375 296.605469 171.734375 Z M 297.210938 167.953125 C 297.585938 167.949219 297.878906 167.652344 297.882812 167.277344 C 297.882812 166.90625 297.582031 166.601562 297.210938 166.605469 C 296.835938 166.605469 296.535156 166.910156 296.539062 167.285156 C 296.535156 167.648438 296.835938 167.953125 297.210938 167.953125 Z M 297.664062 164.050781 C 298.140625 164.050781 298.527344 163.667969 298.523438 163.191406 C 298.523438 162.710938 298.140625 162.328125 297.660156 162.328125 C 297.183594 162.328125 296.796875 162.710938 296.796875 163.1875 C 296.796875 163.667969 297.183594 164.050781 297.664062 164.050781 Z M 297.960938 160.070312 C 298.5 160.070312 298.941406 159.632812 298.941406 159.085938 C 298.941406 158.546875 298.507812 158.101562 297.964844 158.101562 C 297.421875 158.101562 296.980469 158.546875 296.980469 159.085938 C 296.980469 159.628906 297.421875 160.070312 297.960938 160.070312 Z M 298.113281 156.003906 C 298.683594 156.003906 299.144531 155.542969 299.148438 154.976562 C 299.144531 154.40625 298.683594 153.941406 298.113281 153.941406 C 297.546875 153.941406 297.082031 154.40625 297.078125 154.976562 C 297.082031 155.542969 297.546875 156.003906 298.113281 156.003906 Z M 298.113281 151.890625 C 298.683594 151.890625 299.144531 151.429688 299.144531 150.859375 C 299.140625 150.292969 298.683594 149.828125 298.113281 149.832031 C 297.546875 149.828125 297.082031 150.296875 297.078125 150.863281 C 297.078125 151.429688 297.542969 151.890625 298.113281 151.890625 Z M 297.960938 147.738281 C 298.503906 147.738281 298.9375 147.296875 298.941406 146.757812 C 298.9375 146.21875 298.503906 145.78125 297.960938 145.777344 C 297.417969 145.78125 296.984375 146.21875 296.984375 146.757812 C 296.984375 147.292969 297.421875 147.738281 297.960938 147.738281 Z M 297.660156 143.515625 C 298.132812 143.515625 298.523438 143.128906 298.519531 142.652344 C 298.519531 142.175781 298.132812 141.792969 297.660156 141.792969 C 297.183594 141.792969 296.800781 142.175781 296.800781 142.65625 C 296.800781 143.128906 297.183594 143.511719 297.660156 143.515625 Z M 297.207031 139.234375 C 297.574219 139.234375 297.878906 138.933594 297.878906 138.566406 C 297.875 138.195312 297.574219 137.894531 297.207031 137.894531 C 296.835938 137.894531 296.535156 138.195312 296.539062 138.566406 C 296.539062 138.941406 296.835938 139.234375 297.207031 139.234375 Z M 296.21875 134.492188 C 296.214844 134.285156 296.386719 134.113281 296.597656 134.109375 C 296.808594 134.113281 296.980469 134.285156 296.984375 134.492188 C 296.984375 134.707031 296.8125 134.882812 296.601562 134.878906 C 296.386719 134.882812 296.214844 134.707031 296.21875 134.492188 " fill-opacity="1" fill-rule="nonzero"/><path fill="#d3ae8b" d="M 291.390625 114.664062 C 291.574219 114.5625 291.636719 114.324219 291.53125 114.140625 C 291.425781 113.957031 291.1875 113.886719 291.003906 113.996094 C 290.816406 114.101562 290.753906 114.339844 290.863281 114.519531 C 290.96875 114.707031 291.203125 114.769531 291.390625 114.664062 Z M 290.023438 111.085938 C 290.34375 110.898438 290.449219 110.492188 290.265625 110.167969 C 290.078125 109.84375 289.667969 109.730469 289.34375 109.917969 C 289.023438 110.105469 288.914062 110.515625 289.105469 110.839844 C 289.285156 111.160156 289.695312 111.277344 290.023438 111.085938 Z M 288.464844 107.484375 C 288.875 107.246094 289.015625 106.714844 288.777344 106.304688 C 288.539062 105.890625 288.015625 105.746094 287.601562 105.988281 C 287.183594 106.226562 287.039062 106.753906 287.277344 107.167969 C 287.519531 107.582031 288.050781 107.722656 288.464844 107.484375 Z M 286.730469 103.878906 C 287.195312 103.613281 287.359375 103.011719 287.089844 102.542969 C 286.816406 102.074219 286.21875 101.914062 285.75 102.183594 C 285.28125 102.449219 285.117188 103.054688 285.390625 103.523438 C 285.660156 103.992188 286.261719 104.15625 286.730469 103.878906 Z M 284.828125 100.285156 C 285.324219 100.003906 285.492188 99.378906 285.210938 98.875 C 284.921875 98.382812 284.289062 98.214844 283.796875 98.5 C 283.304688 98.785156 283.132812 99.417969 283.417969 99.914062 C 283.707031 100.40625 284.335938 100.570312 284.828125 100.285156 Z M 282.773438 96.722656 C 283.265625 96.4375 283.433594 95.808594 283.148438 95.320312 C 282.863281 94.824219 282.234375 94.652344 281.738281 94.941406 C 281.246094 95.222656 281.078125 95.859375 281.359375 96.351562 C 281.648438 96.84375 282.277344 97.007812 282.773438 96.722656 Z M 280.558594 93.203125 C 281.035156 92.933594 281.191406 92.335938 280.921875 91.867188 C 280.648438 91.398438 280.054688 91.234375 279.582031 91.503906 C 279.113281 91.777344 278.957031 92.375 279.226562 92.84375 C 279.496094 93.308594 280.097656 93.472656 280.558594 93.203125 Z M 278.191406 89.699219 C 278.605469 89.460938 278.746094 88.933594 278.503906 88.523438 C 278.265625 88.109375 277.738281 87.96875 277.328125 88.207031 C 276.917969 88.441406 276.78125 88.96875 277.015625 89.382812 C 277.253906 89.792969 277.777344 89.929688 278.191406 89.699219 Z M 275.65625 86.21875 C 275.976562 86.03125 276.089844 85.621094 275.90625 85.300781 C 275.71875 84.980469 275.304688 84.871094 274.988281 85.054688 C 274.667969 85.246094 274.558594 85.652344 274.746094 85.972656 C 274.929688 86.296875 275.335938 86.402344 275.65625 86.21875 Z M 272.433594 82.605469 C 272.324219 82.425781 272.386719 82.191406 272.570312 82.082031 C 272.753906 81.980469 272.988281 82.046875 273.097656 82.222656 C 273.203125 82.40625 273.140625 82.644531 272.953125 82.746094 C 272.769531 82.855469 272.535156 82.789062 272.433594 82.605469 " fill-opacity="1" fill-rule="nonzero"/><path fill="#d3ae8b" d="M 258.335938 67.84375 C 258.441406 67.664062 258.378906 67.429688 258.195312 67.320312 C 258.007812 67.214844 257.773438 67.277344 257.667969 67.460938 C 257.554688 67.644531 257.621094 67.882812 257.804688 67.988281 C 257.992188 68.09375 258.230469 68.03125 258.335938 67.84375 Z M 255.363281 65.433594 C 255.546875 65.109375 255.433594 64.703125 255.113281 64.511719 C 254.789062 64.324219 254.378906 64.4375 254.195312 64.757812 C 254.007812 65.082031 254.121094 65.496094 254.445312 65.679688 C 254.761719 65.867188 255.171875 65.757812 255.363281 65.433594 Z M 252.210938 63.089844 C 252.449219 62.679688 252.308594 62.152344 251.894531 61.914062 C 251.480469 61.675781 250.953125 61.8125 250.714844 62.230469 C 250.472656 62.644531 250.617188 63.171875 251.027344 63.410156 C 251.441406 63.648438 251.972656 63.503906 252.210938 63.089844 Z M 248.910156 60.835938 C 249.175781 60.375 249.019531 59.769531 248.550781 59.5 C 248.082031 59.226562 247.480469 59.386719 247.207031 59.859375 C 246.9375 60.320312 247.097656 60.929688 247.570312 61.195312 C 248.039062 61.46875 248.640625 61.308594 248.910156 60.835938 Z M 245.460938 58.675781 C 245.75 58.183594 245.582031 57.554688 245.09375 57.265625 C 244.59375 56.984375 243.964844 57.152344 243.675781 57.644531 C 243.394531 58.136719 243.5625 58.769531 244.054688 59.054688 C 244.550781 59.339844 245.179688 59.167969 245.460938 58.675781 Z M 241.902344 56.617188 C 242.1875 56.125 242.015625 55.496094 241.523438 55.210938 C 241.03125 54.929688 240.398438 55.097656 240.117188 55.589844 C 239.832031 56.078125 240.003906 56.714844 240.492188 57 C 240.984375 57.285156 241.617188 57.117188 241.902344 56.617188 Z M 238.226562 54.671875 C 238.5 54.207031 238.335938 53.605469 237.871094 53.335938 C 237.398438 53.066406 236.804688 53.226562 236.53125 53.695312 C 236.261719 54.164062 236.421875 54.761719 236.894531 55.03125 C 237.355469 55.296875 237.960938 55.140625 238.226562 54.671875 Z M 234.421875 52.828125 C 234.660156 52.414062 234.515625 51.882812 234.101562 51.648438 C 233.691406 51.414062 233.167969 51.554688 232.929688 51.964844 C 232.691406 52.375 232.835938 52.898438 233.246094 53.136719 C 233.660156 53.375 234.183594 53.234375 234.421875 52.828125 Z M 230.488281 51.078125 C 230.671875 50.757812 230.566406 50.347656 230.246094 50.160156 C 229.921875 49.976562 229.511719 50.085938 229.328125 50.40625 C 229.140625 50.730469 229.25 51.136719 229.578125 51.320312 C 229.894531 51.507812 230.300781 51.398438 230.488281 51.078125 Z M 225.886719 49.5625 C 225.707031 49.464844 225.640625 49.222656 225.746094 49.039062 C 225.855469 48.859375 226.089844 48.796875 226.273438 48.894531 C 226.457031 49.003906 226.519531 49.238281 226.410156 49.421875 C 226.304688 49.609375 226.074219 49.671875 225.886719 49.5625 " fill-opacity="1" fill-rule="nonzero"/><path fill="#d3ae8b" d="M 183.324219 59.625 C 183.324219 59.625 186.59375 59.085938 186.777344 58.898438 C 186.964844 58.714844 187.5 55.449219 187.5 55.449219 C 187.5 55.449219 188.039062 58.714844 188.222656 58.898438 C 188.410156 59.085938 191.671875 59.625 191.671875 59.625 C 191.671875 59.625 188.410156 60.164062 188.222656 60.347656 C 188.039062 60.535156 187.5 63.800781 187.5 63.800781 C 187.5 63.800781 186.964844 60.535156 186.777344 60.347656 C 186.59375 60.164062 183.324219 59.625 183.324219 59.625 " fill-opacity="1" fill-rule="nonzero"/><path fill="#d3ae8b" d="M 137.230469 74.210938 C 137.230469 74.210938 139.789062 72.113281 139.859375 71.859375 C 139.925781 71.605469 138.757812 68.511719 138.757812 68.511719 C 138.757812 68.511719 140.855469 71.070312 141.109375 71.136719 C 141.367188 71.203125 144.460938 70.039062 144.460938 70.039062 C 144.460938 70.039062 141.902344 72.136719 141.835938 72.386719 C 141.765625 72.640625 142.933594 75.742188 142.933594 75.742188 C 142.933594 75.742188 140.835938 73.179688 140.578125 73.113281 C 140.328125 73.039062 137.230469 74.210938 137.230469 74.210938 " fill-opacity="1" fill-rule="nonzero"/><path fill="#d3ae8b" d="M 104.601562 109.894531 C 104.601562 109.894531 105.773438 106.792969 105.703125 106.542969 C 105.636719 106.289062 103.074219 104.191406 103.074219 104.191406 C 103.074219 104.191406 106.171875 105.359375 106.425781 105.292969 C 106.683594 105.21875 108.777344 102.664062 108.777344 102.664062 C 108.777344 102.664062 107.609375 105.757812 107.679688 106.015625 C 107.746094 106.265625 110.308594 108.363281 110.308594 108.363281 C 110.308594 108.363281 107.210938 107.199219 106.957031 107.265625 C 106.703125 107.332031 104.601562 109.894531 104.601562 109.894531 " fill-opacity="1" fill-rule="nonzero"/><path fill="#d3ae8b" d="M 94.1875 157.109375 C 94.1875 157.109375 93.652344 153.839844 93.464844 153.65625 C 93.28125 153.46875 90.015625 152.933594 90.015625 152.933594 C 90.015625 152.933594 93.28125 152.394531 93.464844 152.210938 C 93.652344 152.023438 94.1875 148.761719 94.1875 148.761719 C 94.1875 148.761719 94.726562 152.023438 94.914062 152.210938 C 95.097656 152.394531 98.363281 152.933594 98.363281 152.933594 C 98.363281 152.933594 95.097656 153.472656 94.914062 153.65625 C 94.726562 153.839844 94.1875 157.109375 94.1875 157.109375 " fill-opacity="1" fill-rule="nonzero"/><path fill="#d3ae8b" d="M 108.777344 203.207031 C 108.777344 203.207031 106.679688 200.640625 106.421875 200.574219 C 106.171875 200.503906 103.074219 201.675781 103.074219 201.675781 C 103.074219 201.675781 105.632812 199.578125 105.699219 199.324219 C 105.769531 199.066406 104.601562 195.972656 104.601562 195.972656 C 104.601562 195.972656 106.699219 198.53125 106.957031 198.601562 C 107.207031 198.667969 110.308594 197.496094 110.308594 197.496094 C 110.308594 197.496094 107.75 199.601562 107.679688 199.851562 C 107.609375 200.101562 108.777344 203.207031 108.777344 203.207031 " fill-opacity="1" fill-rule="nonzero"/><path fill="#d3ae8b" d="M 144.460938 235.832031 C 144.460938 235.832031 141.359375 234.660156 141.105469 234.730469 C 140.851562 234.796875 138.757812 237.359375 138.757812 237.359375 C 138.757812 237.359375 139.921875 234.261719 139.855469 234.007812 C 139.785156 233.75 137.226562 231.652344 137.226562 231.652344 C 137.226562 231.652344 140.324219 232.820312 140.578125 232.753906 C 140.832031 232.6875 142.933594 230.125 142.933594 230.125 C 142.933594 230.125 141.765625 233.222656 141.828125 233.472656 C 141.898438 233.734375 144.460938 235.832031 144.460938 235.832031 " fill-opacity="1" fill-rule="nonzero"/><path fill="#d3ae8b" d="M 191.675781 246.242188 C 191.675781 246.242188 188.402344 246.78125 188.21875 246.96875 C 188.03125 247.148438 187.5 250.421875 187.5 250.421875 C 187.5 250.421875 186.957031 247.152344 186.773438 246.96875 C 186.585938 246.78125 183.320312 246.242188 183.320312 246.242188 C 183.320312 246.242188 186.589844 245.707031 186.777344 245.519531 C 186.960938 245.339844 187.5 242.066406 187.5 242.066406 C 187.5 242.066406 188.035156 245.335938 188.214844 245.519531 C 188.40625 245.707031 191.675781 246.242188 191.675781 246.242188 " fill-opacity="1" fill-rule="nonzero"/><path fill="#d3ae8b" d="M 237.769531 231.652344 C 237.769531 231.652344 235.203125 233.757812 235.136719 234.007812 C 235.066406 234.261719 236.246094 237.359375 236.246094 237.359375 C 236.246094 237.359375 234.140625 234.800781 233.886719 234.730469 C 233.632812 234.667969 230.539062 235.835938 230.539062 235.835938 C 230.539062 235.835938 233.097656 233.734375 233.164062 233.472656 C 233.234375 233.226562 232.066406 230.125 232.066406 230.125 C 232.066406 230.125 234.164062 232.6875 234.414062 232.757812 C 234.667969 232.824219 237.769531 231.652344 237.769531 231.652344 " fill-opacity="1" fill-rule="nonzero"/><path fill="#d3ae8b" d="M 270.394531 195.976562 C 270.394531 195.976562 269.222656 199.074219 269.292969 199.328125 C 269.359375 199.578125 271.925781 201.675781 271.925781 201.675781 C 271.925781 201.675781 268.824219 200.511719 268.570312 200.578125 C 268.316406 200.648438 266.222656 203.207031 266.222656 203.207031 C 266.222656 203.207031 267.386719 200.109375 267.316406 199.855469 C 267.253906 199.601562 264.691406 197.496094 264.691406 197.496094 C 264.691406 197.496094 267.789062 198.671875 268.039062 198.609375 C 268.296875 198.539062 270.394531 195.976562 270.394531 195.976562 " fill-opacity="1" fill-rule="nonzero"/><path fill="#d3ae8b" d="M 280.808594 148.761719 C 280.808594 148.761719 281.347656 152.03125 281.53125 152.214844 C 281.71875 152.402344 284.984375 152.933594 284.984375 152.933594 C 284.984375 152.933594 281.722656 153.476562 281.535156 153.660156 C 281.347656 153.851562 280.8125 157.113281 280.8125 157.113281 C 280.8125 157.113281 280.269531 153.847656 280.082031 153.660156 C 279.902344 153.472656 276.632812 152.933594 276.632812 152.933594 C 276.632812 152.933594 279.902344 152.398438 280.085938 152.21875 C 280.269531 152.027344 280.808594 148.761719 280.808594 148.761719 " fill-opacity="1" fill-rule="nonzero"/><path fill="#d3ae8b" d="M 266.21875 102.667969 C 266.21875 102.667969 268.324219 105.230469 268.570312 105.292969 C 268.832031 105.367188 271.921875 104.1875 271.921875 104.1875 C 271.921875 104.1875 269.367188 106.292969 269.300781 106.546875 C 269.234375 106.804688 270.398438 109.894531 270.398438 109.894531 C 270.398438 109.894531 268.296875 107.339844 268.042969 107.269531 C 267.789062 107.199219 264.691406 108.363281 264.691406 108.363281 C 264.691406 108.363281 267.253906 106.269531 267.324219 106.023438 C 267.390625 105.761719 266.21875 102.667969 266.21875 102.667969 " fill-opacity="1" fill-rule="nonzero"/><path fill="#d3ae8b" d="M 230.539062 70.042969 C 230.539062 70.042969 233.644531 71.210938 233.890625 71.140625 C 234.148438 71.074219 236.242188 68.511719 236.242188 68.511719 C 236.242188 68.511719 235.078125 71.609375 235.148438 71.863281 C 235.21875 72.117188 237.777344 74.214844 237.777344 74.214844 C 237.777344 74.214844 234.671875 73.050781 234.417969 73.121094 C 234.167969 73.179688 232.066406 75.742188 232.066406 75.742188 C 232.066406 75.742188 233.238281 72.644531 233.171875 72.398438 C 233.101562 72.140625 230.539062 70.042969 230.539062 70.042969 " fill-opacity="1" fill-rule="nonzero"/><path fill="#d3ae8b" d="M 132.753906 93.199219 L 132.9375 91.636719 C 130.71875 91.375 128.742188 90.429688 127.148438 89.0625 L 128.035156 88.175781 L 126.917969 87.0625 L 126.035156 87.945312 C 124.664062 86.351562 123.722656 84.378906 123.460938 82.160156 L 121.894531 82.34375 C 122.199219 84.925781 123.304688 87.222656 124.921875 89.0625 L 123.625 90.355469 C 121.785156 88.742188 119.488281 87.636719 116.90625 87.332031 L 116.722656 88.894531 C 118.941406 89.160156 120.917969 90.097656 122.507812 91.472656 L 121.625 92.355469 L 122.738281 93.472656 L 123.621094 92.585938 C 124.996094 94.175781 125.9375 96.15625 126.199219 98.375 L 127.765625 98.191406 C 127.460938 95.609375 126.351562 93.308594 124.738281 91.472656 L 126.035156 90.171875 C 127.871094 91.789062 130.171875 92.898438 132.753906 93.199219 " fill-opacity="1" fill-rule="nonzero"/><path fill="#d3ae8b" d="M 104.214844 138.410156 C 103.800781 137.796875 103.59375 137.449219 103.75 136.878906 C 103.902344 136.308594 104.253906 136.113281 104.917969 135.785156 C 105.617188 135.441406 106.570312 134.976562 106.914062 133.6875 C 107.261719 132.398438 106.667969 131.515625 106.234375 130.871094 C 105.824219 130.257812 105.617188 129.914062 105.765625 129.34375 C 105.921875 128.773438 106.273438 128.578125 106.9375 128.25 C 107.636719 127.910156 108.589844 127.441406 108.933594 126.15625 C 109.277344 124.867188 108.683594 123.984375 108.253906 123.339844 C 107.84375 122.730469 107.632812 122.382812 107.785156 121.816406 L 106.261719 121.40625 C 105.917969 122.695312 106.511719 123.578125 106.945312 124.21875 C 107.355469 124.832031 107.5625 125.179688 107.410156 125.75 C 107.257812 126.316406 106.90625 126.511719 106.242188 126.839844 C 105.546875 127.179688 104.59375 127.644531 104.242188 128.933594 C 103.902344 130.222656 104.492188 131.101562 104.925781 131.75 C 105.335938 132.359375 105.542969 132.707031 105.390625 133.28125 C 105.242188 133.851562 104.886719 134.046875 104.222656 134.371094 C 103.527344 134.714844 102.570312 135.183594 102.226562 136.472656 C 101.878906 137.761719 102.472656 138.644531 102.90625 139.289062 C 103.320312 139.902344 103.527344 140.253906 103.371094 140.824219 L 104.894531 141.230469 C 105.242188 139.941406 104.648438 139.058594 104.214844 138.410156 Z M 100.179688 139.964844 L 98.65625 139.558594 C 98.808594 138.988281 98.601562 138.640625 98.1875 138.023438 C 97.757812 137.378906 97.164062 136.496094 97.507812 135.207031 C 97.855469 133.917969 98.8125 133.449219 99.511719 133.109375 C 100.171875 132.785156 100.527344 132.585938 100.675781 132.015625 C 100.828125 131.445312 100.621094 131.101562 100.210938 130.488281 C 99.777344 129.84375 99.183594 128.960938 99.53125 127.671875 C 99.875 126.382812 100.828125 125.914062 101.527344 125.574219 C 102.191406 125.25 102.542969 125.050781 102.695312 124.488281 C 102.847656 123.917969 102.640625 123.570312 102.226562 122.957031 C 101.796875 122.3125 101.203125 121.429688 101.546875 120.144531 L 103.070312 120.550781 C 102.917969 121.117188 103.125 121.464844 103.535156 122.078125 C 103.96875 122.722656 104.5625 123.605469 104.21875 124.894531 C 103.871094 126.179688 102.917969 126.648438 102.222656 126.992188 C 101.558594 127.316406 101.207031 127.507812 101.050781 128.078125 C 100.898438 128.648438 101.105469 128.996094 101.519531 129.609375 C 101.949219 130.253906 102.542969 131.136719 102.199219 132.421875 C 101.855469 133.710938 100.902344 134.179688 100.203125 134.519531 C 99.539062 134.847656 99.183594 135.046875 99.03125 135.613281 C 98.875 136.183594 99.085938 136.535156 99.5 137.148438 C 99.929688 137.792969 100.523438 138.675781 100.179688 139.964844 " fill-opacity="1" fill-rule="nonzero"/><path fill="#d3ae8b" d="M 95.929688 171.6875 C 95.777344 171.6875 95.609375 171.710938 95.4375 171.761719 C 94.816406 171.941406 94.078125 172.664062 94.378906 173.714844 C 94.652344 174.660156 95.535156 175.121094 96.53125 174.835938 C 97.226562 174.640625 97.691406 174.253906 98.054688 173.761719 C 98.027344 173.6875 98.003906 173.613281 97.984375 173.535156 C 97.792969 172.875 97.070312 171.6875 95.929688 171.6875 Z M 102.835938 185.054688 C 102.289062 185.054688 101.75 184.917969 101.261719 184.644531 C 100.5 184.222656 99.945312 183.53125 99.710938 182.695312 C 99.382812 181.554688 99.480469 179.945312 101.789062 178.722656 C 103.035156 178.0625 105.273438 176.96875 107.234375 176.03125 C 106.050781 176.109375 104.824219 176.1875 103.871094 176.234375 C 101.628906 176.359375 99.976562 175.972656 98.976562 175.113281 C 98.488281 175.648438 97.847656 176.097656 96.964844 176.351562 C 95.136719 176.882812 93.375 175.929688 92.867188 174.148438 C 92.324219 172.277344 93.554688 170.664062 95.003906 170.246094 C 96.800781 169.730469 98.207031 170.746094 98.976562 171.964844 C 99.546875 170.65625 100.21875 169.210938 101.996094 168.703125 C 102.910156 168.4375 103.820312 168.546875 104.5625 169.003906 C 105.230469 169.417969 105.722656 170.070312 105.945312 170.859375 L 104.429688 171.289062 C 104.316406 170.890625 104.0625 170.546875 103.738281 170.347656 C 103.363281 170.117188 102.921875 170.070312 102.429688 170.214844 C 101.375 170.519531 100.960938 171.355469 100.375 172.699219 C 100.226562 173.042969 100.066406 173.414062 99.878906 173.773438 C 100.519531 174.464844 101.832031 174.761719 103.792969 174.660156 C 106.449219 174.527344 111.285156 174.175781 111.285156 174.175781 L 111.679688 175.671875 C 111.613281 175.707031 104.984375 178.808594 102.527344 180.113281 C 101.046875 180.898438 101.054688 181.671875 101.222656 182.261719 C 101.347656 182.691406 101.632812 183.050781 102.027344 183.269531 C 102.417969 183.484375 102.875 183.539062 103.304688 183.414062 L 103.742188 184.925781 C 103.441406 185.015625 103.136719 185.054688 102.835938 185.054688 " fill-opacity="1" fill-rule="nonzero"/><path fill="#d3ae8b" d="M 136.109375 213.054688 L 131.03125 213.054688 L 131.03125 209.878906 L 129.457031 209.878906 L 129.457031 213.054688 L 119.425781 213.050781 L 122.035156 210.441406 L 120.921875 209.328125 L 116.410156 213.835938 L 120.925781 218.355469 L 122.039062 217.242188 L 119.429688 214.625 L 129.457031 214.628906 L 129.457031 217.796875 L 131.03125 217.796875 L 131.03125 214.628906 L 136.109375 214.628906 L 136.109375 213.054688 " fill-opacity="1" fill-rule="nonzero"/><path fill="#d3ae8b" d="M 171.039062 245.15625 C 170.925781 245.589844 170.652344 245.945312 170.265625 246.167969 C 169.882812 246.390625 169.433594 246.449219 169.003906 246.332031 C 168.578125 246.21875 168.21875 245.945312 167.996094 245.558594 C 167.773438 245.175781 167.714844 244.726562 167.832031 244.300781 L 170.230469 235.351562 L 168.707031 234.941406 L 166.308594 243.890625 C 166.070312 244.777344 165.160156 245.304688 164.273438 245.0625 C 163.390625 244.828125 162.863281 243.917969 163.097656 243.03125 L 165.496094 234.082031 L 163.972656 233.671875 L 161.574219 242.625 C 161.460938 243.050781 161.1875 243.410156 160.804688 243.628906 C 160.417969 243.855469 159.96875 243.914062 159.539062 243.796875 C 159.113281 243.683594 158.753906 243.410156 158.535156 243.023438 C 158.3125 242.640625 158.253906 242.191406 158.367188 241.765625 L 161.394531 230.457031 C 161.617188 229.621094 161.507812 228.75 161.074219 228 C 160.640625 227.253906 159.941406 226.71875 159.105469 226.496094 C 158.277344 226.269531 157.398438 226.386719 156.648438 226.820312 C 155.902344 227.25 155.363281 227.949219 155.140625 228.78125 L 154.757812 230.222656 L 154.269531 229.355469 L 152.894531 230.125 L 154.722656 233.382812 L 157.9375 231.480469 L 157.132812 230.121094 L 156.277344 230.632812 L 156.664062 229.1875 C 156.777344 228.757812 157.054688 228.402344 157.4375 228.183594 C 157.820312 227.960938 158.269531 227.898438 158.699219 228.019531 C 159.128906 228.132812 159.488281 228.40625 159.707031 228.789062 C 159.929688 229.175781 159.988281 229.621094 159.871094 230.046875 L 156.847656 241.355469 C 156.621094 242.191406 156.734375 243.066406 157.167969 243.8125 C 157.601562 244.5625 158.296875 245.09375 159.132812 245.320312 C 159.414062 245.394531 159.695312 245.429688 159.976562 245.429688 C 160.539062 245.429688 161.09375 245.285156 161.59375 244.992188 C 161.667969 244.949219 161.714844 244.875 161.785156 244.824219 C 162.179688 245.664062 162.90625 246.328125 163.867188 246.585938 C 164.144531 246.664062 164.425781 246.695312 164.703125 246.695312 C 165.367188 246.695312 165.992188 246.476562 166.523438 246.109375 C 166.5625 246.1875 166.589844 246.273438 166.632812 246.347656 C 167.066406 247.097656 167.765625 247.628906 168.597656 247.855469 C 168.875 247.933594 169.160156 247.964844 169.441406 247.964844 C 170 247.964844 170.554688 247.820312 171.054688 247.535156 C 171.804688 247.097656 172.335938 246.398438 172.5625 245.566406 L 171.039062 245.15625 " fill-opacity="1" fill-rule="nonzero"/><path fill="#d3ae8b" d="M 218.746094 231.777344 L 218.339844 230.257812 L 199.503906 235.304688 L 199.910156 236.828125 Z M 210.804688 244.511719 C 208.726562 244.511719 206.820312 243.121094 206.257812 241.023438 C 206.132812 240.558594 206.082031 240.085938 206.097656 239.613281 L 201.019531 240.972656 L 200.613281 239.449219 L 208.308594 237.390625 L 207.835938 238.785156 C 207.636719 239.363281 207.621094 240.015625 207.78125 240.613281 C 208.226562 242.28125 209.953125 243.277344 211.613281 242.824219 C 212.421875 242.613281 213.09375 242.09375 213.515625 241.371094 C 213.933594 240.640625 214.042969 239.800781 213.824219 238.992188 C 213.660156 238.386719 213.328125 237.847656 212.859375 237.441406 L 211.734375 236.46875 L 219.449219 234.402344 L 219.855469 235.925781 L 214.78125 237.285156 C 215.03125 237.6875 215.222656 238.117188 215.347656 238.585938 C 215.675781 239.800781 215.503906 241.0625 214.875 242.15625 C 214.25 243.242188 213.234375 244.027344 212.023438 244.347656 C 211.617188 244.457031 211.207031 244.511719 210.804688 244.511719 " fill-opacity="1" fill-rule="nonzero"/><path fill="#d3ae8b" d="M 244.507812 221.144531 C 244.324219 221.328125 244.058594 221.417969 243.800781 221.378906 C 243.507812 221.335938 243.253906 221.144531 243.074219 220.820312 C 242.613281 219.988281 242.339844 218.796875 242.152344 217.339844 L 244.515625 219.707031 C 244.90625 220.105469 244.902344 220.746094 244.507812 221.144531 Z M 259.753906 211.300781 L 258.640625 212.414062 C 259.316406 213.089844 259.316406 214.191406 258.640625 214.871094 C 258.3125 215.199219 257.875 215.382812 257.410156 215.378906 C 256.945312 215.378906 256.511719 215.199219 256.183594 214.871094 L 249.433594 208.121094 L 248.320312 209.238281 L 255.066406 215.984375 C 255.746094 216.660156 255.746094 217.765625 255.070312 218.4375 C 254.394531 219.113281 253.292969 219.117188 252.613281 218.4375 L 245.867188 211.691406 L 244.753906 212.804688 L 251.5 219.554688 C 251.832031 219.882812 252.011719 220.316406 252.011719 220.78125 C 252.011719 221.246094 251.832031 221.679688 251.5 222.007812 C 251.175781 222.335938 250.738281 222.515625 250.277344 222.515625 C 249.8125 222.515625 249.375 222.335938 249.046875 222.007812 L 241.914062 214.871094 C 241.863281 214.171875 241.8125 213.445312 241.761719 212.675781 C 241.699219 211.714844 241.636719 210.691406 241.550781 209.609375 L 239.980469 209.730469 C 240.0625 210.804688 240.128906 211.824219 240.191406 212.777344 C 240.199219 212.917969 240.207031 213.039062 240.21875 213.179688 C 239.097656 212.054688 237.265625 212.054688 236.21875 213.105469 C 235.695312 213.628906 235.40625 214.324219 235.40625 215.0625 C 235.40625 215.808594 235.695312 216.503906 236.222656 217.03125 L 237.335938 215.914062 C 237.109375 215.6875 236.980469 215.386719 236.980469 215.0625 C 236.980469 214.746094 237.105469 214.445312 237.332031 214.21875 C 237.785156 213.761719 238.578125 213.761719 239.027344 214.21875 L 240.382812 215.574219 C 240.597656 218.171875 240.902344 220.15625 241.699219 221.589844 C 242.121094 222.347656 242.792969 222.828125 243.585938 222.9375 C 243.695312 222.957031 243.804688 222.960938 243.914062 222.960938 C 244.550781 222.960938 245.171875 222.707031 245.621094 222.253906 C 245.878906 222 246.066406 221.703125 246.195312 221.378906 L 247.933594 223.117188 C 248.558594 223.746094 249.390625 224.089844 250.277344 224.089844 C 251.164062 224.089844 251.992188 223.746094 252.617188 223.125 C 253.242188 222.496094 253.585938 221.667969 253.585938 220.78125 C 253.585938 220.683594 253.566406 220.589844 253.558594 220.496094 C 253.652344 220.503906 253.75 220.519531 253.84375 220.519531 C 254.691406 220.519531 255.539062 220.195312 256.183594 219.554688 C 256.902344 218.832031 257.207031 217.867188 257.125 216.925781 C 257.21875 216.9375 257.308594 216.953125 257.40625 216.953125 C 258.296875 216.953125 259.128906 216.609375 259.753906 215.984375 C 261.046875 214.691406 261.046875 212.59375 259.753906 211.300781 " fill-opacity="1" fill-rule="nonzero"/><path fill="#d3ae8b" d="M 268.5 169.761719 C 268.757812 168.804688 269.625 168.140625 270.613281 168.140625 C 270.804688 168.140625 270.992188 168.164062 271.179688 168.214844 C 271.746094 168.363281 272.214844 168.726562 272.507812 169.230469 C 272.800781 169.738281 272.878906 170.328125 272.726562 170.890625 C 272.421875 172.03125 271.199219 172.746094 270.046875 172.4375 C 268.882812 172.125 268.1875 170.921875 268.5 169.761719 Z M 280.375 175.035156 C 279.746094 173.945312 278.730469 173.167969 277.515625 172.84375 C 276.03125 172.445312 274.800781 172.539062 273.609375 172.625 C 273.855469 172.238281 274.113281 171.804688 274.246094 171.304688 C 274.507812 170.332031 274.375 169.316406 273.871094 168.441406 C 273.371094 167.574219 272.558594 166.953125 271.585938 166.691406 C 269.621094 166.164062 267.507812 167.394531 266.980469 169.351562 C 266.441406 171.355469 267.636719 173.421875 269.636719 173.957031 C 271.222656 174.378906 272.496094 174.285156 273.726562 174.199219 C 274.835938 174.113281 275.886719 174.035156 277.109375 174.363281 C 277.917969 174.582031 278.59375 175.097656 279.011719 175.824219 C 279.429688 176.546875 279.539062 177.386719 279.324219 178.195312 C 278.875 179.863281 277.15625 180.863281 275.488281 180.410156 C 273.335938 179.832031 272.105469 178.722656 270.925781 177.648438 C 269.859375 176.6875 268.851562 175.777344 267.324219 175.367188 C 265.277344 174.820312 263.339844 175.859375 262.824219 177.785156 C 262.328125 179.648438 263.429688 181.570312 265.28125 182.066406 L 265.6875 180.542969 C 264.675781 180.273438 264.074219 179.21875 264.347656 178.191406 C 264.691406 176.914062 265.917969 176.625 266.917969 176.890625 C 268.074219 177.203125 268.90625 177.953125 269.867188 178.820312 C 271.128906 179.960938 272.558594 181.257812 275.082031 181.933594 C 275.488281 182.039062 275.894531 182.09375 276.300781 182.09375 C 278.375 182.09375 280.28125 180.707031 280.84375 178.605469 C 281.171875 177.390625 281.003906 176.121094 280.375 175.035156 " fill-opacity="1" fill-rule="nonzero"/><path fill="#d3ae8b" d="M 273.175781 134.207031 C 274.238281 133.925781 275.382812 134.589844 275.664062 135.644531 C 275.953125 136.730469 275.308594 137.847656 274.230469 138.136719 C 274.054688 138.183594 273.878906 138.207031 273.699219 138.207031 C 272.785156 138.207031 271.976562 137.585938 271.738281 136.699219 C 271.449219 135.613281 272.09375 134.5 273.175781 134.207031 Z M 264.421875 132.675781 C 265.007812 134.863281 266.375 136.898438 268.171875 138.261719 C 270.148438 139.75 272.535156 140.222656 274.636719 139.660156 C 276.558594 139.144531 277.703125 137.164062 277.1875 135.238281 C 276.765625 133.664062 275.332031 132.5625 273.703125 132.5625 C 273.386719 132.5625 273.074219 132.601562 272.769531 132.6875 C 270.847656 133.203125 269.703125 135.183594 270.214844 137.105469 C 270.28125 137.351562 270.375 137.585938 270.492188 137.804688 C 270.027344 137.59375 269.566406 137.339844 269.125 137.003906 C 267.601562 135.847656 266.441406 134.125 265.945312 132.265625 C 265.488281 130.566406 265.496094 129.007812 265.976562 127.507812 L 264.476562 127.03125 C 263.910156 128.800781 263.890625 130.699219 264.421875 132.675781 Z M 271.125 127.152344 C 270.0625 127.4375 268.917969 126.773438 268.632812 125.714844 C 268.347656 124.628906 268.988281 123.515625 270.074219 123.222656 C 270.246094 123.175781 270.421875 123.15625 270.601562 123.15625 C 271.515625 123.15625 272.324219 123.773438 272.5625 124.664062 C 272.851562 125.746094 272.207031 126.863281 271.125 127.152344 Z M 279.878906 128.6875 C 279.292969 126.496094 277.925781 124.460938 276.125 123.101562 C 274.15625 121.609375 271.765625 121.140625 269.664062 121.699219 C 267.742188 122.21875 266.597656 124.199219 267.113281 126.121094 C 267.535156 127.695312 268.96875 128.796875 270.597656 128.796875 C 270.914062 128.796875 271.226562 128.757812 271.53125 128.675781 C 273.457031 128.160156 274.597656 126.175781 274.085938 124.253906 C 274.019531 124.007812 273.925781 123.773438 273.808594 123.554688 C 274.273438 123.765625 274.734375 124.023438 275.175781 124.359375 C 276.699219 125.511719 277.859375 127.238281 278.355469 129.097656 C 278.8125 130.792969 278.800781 132.351562 278.324219 133.851562 L 279.824219 134.332031 C 280.390625 132.5625 280.40625 130.660156 279.878906 128.6875 " fill-opacity="1" fill-rule="nonzero"/><path fill="#d3ae8b" d="M 247.394531 94.898438 C 246.851562 94.207031 246.230469 93.585938 245.542969 93.046875 L 251.96875 86.617188 C 252.511719 87.308594 253.132812 87.929688 253.820312 88.472656 Z M 258.152344 90.5625 L 258.511719 89.027344 C 254.964844 88.195312 252.246094 85.472656 251.414062 81.925781 L 249.878906 82.285156 C 250.132812 83.359375 250.539062 84.367188 251.070312 85.292969 L 244.214844 92.144531 C 243.289062 91.617188 242.28125 91.207031 241.210938 90.953125 L 240.847656 92.488281 C 244.394531 93.324219 247.117188 96.042969 247.949219 99.589844 L 249.484375 99.226562 C 249.230469 98.152344 248.820312 97.148438 248.292969 96.222656 L 255.144531 89.367188 C 256.070312 89.898438 257.074219 90.308594 258.152344 90.5625 " fill-opacity="1" fill-rule="nonzero"/><path fill="#d3ae8b" d="M 214.085938 73.03125 C 213.4375 75.445312 210.839844 76.96875 208.402344 76.3125 C 205.933594 75.648438 204.460938 73.097656 205.125 70.628906 C 205.667969 68.605469 207.507812 67.191406 209.601562 67.191406 C 210.003906 67.191406 210.410156 67.246094 210.804688 67.351562 C 213.277344 68.011719 214.746094 70.558594 214.085938 73.03125 Z M 218.609375 65.1875 L 217.292969 64.320312 C 216.289062 65.859375 213.738281 66.480469 211.214844 65.808594 C 208.703125 65.132812 206.800781 63.316406 206.695312 61.480469 L 205.125 61.570312 C 205.21875 63.203125 206.230469 64.761719 207.792969 65.898438 C 205.785156 66.511719 204.167969 68.113281 203.601562 70.21875 C 202.714844 73.53125 204.683594 76.949219 207.996094 77.835938 C 208.523438 77.976562 209.066406 78.046875 209.605469 78.046875 C 212.414062 78.046875 214.882812 76.152344 215.605469 73.441406 C 216.183594 71.277344 215.535156 69.089844 214.101562 67.570312 C 216.03125 67.375 217.710938 66.5625 218.609375 65.1875 " fill-opacity="1" fill-rule="nonzero"/><path fill="#d3ae8b" d="M 165.9375 77.019531 L 161.703125 66.75 C 161.328125 65.839844 160.460938 65.058594 159.386719 65.339844 C 158.394531 65.605469 157.804688 66.628906 158.070312 67.621094 L 156.546875 68.027344 C 156.058594 66.195312 157.148438 64.308594 158.980469 63.820312 C 160.691406 63.363281 162.40625 64.320312 163.15625 66.152344 L 165.113281 70.890625 C 164.847656 68.871094 164.578125 66.867188 164.421875 65.828125 C 164.128906 63.894531 165.15625 62.160156 166.871094 61.703125 C 167.757812 61.464844 168.6875 61.585938 169.480469 62.050781 C 170.277344 62.507812 170.84375 63.25 171.078125 64.136719 L 169.558594 64.539062 C 169.429688 64.0625 169.121094 63.660156 168.691406 63.410156 C 168.261719 63.167969 167.761719 63.097656 167.277344 63.226562 C 166.183594 63.519531 165.835938 64.65625 165.976562 65.59375 C 166.363281 68.160156 167.445312 76.621094 167.445312 76.621094 L 165.9375 77.019531 " fill-opacity="1" fill-rule="nonzero"/><path fill="#d3ae8b" d="M 149.261719 93.539062 C 148.320312 91.902344 148.878906 89.8125 150.511719 88.867188 C 150.785156 88.710938 151.082031 88.59375 151.382812 88.519531 C 153.785156 89.085938 155.355469 91.878906 154.714844 94.148438 C 154.484375 94.394531 154.230469 94.617188 153.933594 94.789062 C 152.347656 95.703125 150.167969 95.109375 149.261719 93.539062 Z M 156.089844 89.59375 C 155.296875 88.214844 153.8125 87.359375 152.214844 87.359375 C 151.4375 87.359375 150.667969 87.566406 149.988281 87.960938 C 147.851562 89.191406 147.121094 91.929688 148.351562 94.0625 C 149.148438 95.441406 150.632812 96.300781 152.226562 96.300781 C 153.003906 96.300781 153.777344 96.089844 154.457031 95.699219 C 155.492188 95.105469 156.230469 94.140625 156.539062 92.988281 C 156.847656 91.835938 156.6875 90.628906 156.089844 89.59375 " fill-opacity="1" fill-rule="nonzero"/><path fill="#d3ae8b" d="M 124.683594 120.613281 C 123.894531 120.160156 123.324219 119.417969 123.089844 118.539062 C 122.851562 117.65625 122.972656 116.734375 123.429688 115.945312 C 123.507812 115.8125 123.613281 115.703125 123.707031 115.585938 C 125.621094 115.554688 128.417969 117.21875 129.5 119.042969 C 129.453125 119.152344 129.414062 119.257812 129.355469 119.363281 C 128.449219 120.933594 126.269531 121.53125 124.683594 120.613281 Z M 128.625 113.785156 C 127.949219 113.394531 127.175781 113.1875 126.394531 113.1875 C 124.800781 113.1875 123.316406 114.042969 122.519531 115.417969 C 121.925781 116.453125 121.765625 117.660156 122.074219 118.8125 C 122.386719 119.964844 123.125 120.929688 124.160156 121.523438 C 124.839844 121.917969 125.609375 122.125 126.390625 122.125 C 127.984375 122.125 129.46875 121.269531 130.265625 119.886719 C 131.496094 117.753906 130.757812 115.015625 128.625 113.785156 " fill-opacity="1" fill-rule="nonzero"/><path fill="#d3ae8b" d="M 116.941406 156.355469 C 115.054688 156.355469 113.523438 154.820312 113.523438 152.9375 L 120.359375 152.9375 C 120.359375 154.820312 118.824219 156.355469 116.941406 156.355469 Z M 116.941406 148.46875 C 114.476562 148.46875 112.472656 150.472656 112.472656 152.9375 C 112.472656 155.402344 114.476562 157.40625 116.941406 157.40625 C 119.402344 157.40625 121.410156 155.402344 121.410156 152.9375 C 121.410156 150.472656 119.402344 148.46875 116.941406 148.46875 " fill-opacity="1" fill-rule="nonzero"/><path fill="#d3ae8b" d="M 128.101562 191.179688 C 126.628906 192.027344 124.652344 191.5625 123.652344 190.226562 C 125.824219 190.242188 128.46875 188.636719 129.503906 186.84375 C 130.199219 188.417969 129.625 190.296875 128.101562 191.179688 Z M 130.265625 185.980469 C 129.46875 184.601562 127.984375 183.746094 126.390625 183.746094 C 125.605469 183.746094 124.835938 183.953125 124.160156 184.347656 C 122.023438 185.578125 121.289062 188.316406 122.523438 190.453125 C 123.320312 191.832031 124.804688 192.691406 126.398438 192.691406 C 127.175781 192.691406 127.949219 192.480469 128.628906 192.085938 C 130.761719 190.855469 131.496094 188.113281 130.265625 185.980469 " fill-opacity="1" fill-rule="nonzero"/><path fill="#d3ae8b" d="M 155.179688 215.757812 C 154.386719 217.125 152.625 217.753906 151.132812 217.28125 C 153.71875 216.597656 155.195312 213.859375 154.605469 211.609375 C 155.691406 212.675781 155.976562 214.378906 155.179688 215.757812 Z M 154.457031 210.175781 C 153.773438 209.78125 153.003906 209.574219 152.222656 209.574219 C 150.628906 209.574219 149.144531 210.429688 148.347656 211.8125 C 147.117188 213.949219 147.851562 216.683594 149.984375 217.917969 C 150.664062 218.3125 151.4375 218.515625 152.214844 218.515625 C 153.808594 218.515625 155.292969 217.660156 156.089844 216.28125 C 157.320312 214.144531 156.589844 211.410156 154.457031 210.175781 " fill-opacity="1" fill-rule="nonzero"/><path fill="#d3ae8b" d="M 187.5 219.027344 C 185.035156 219.027344 183.03125 221.03125 183.03125 223.5 C 183.03125 225.960938 185.035156 227.964844 187.5 227.964844 C 189.964844 227.964844 191.96875 225.960938 191.96875 223.5 C 191.96875 221.03125 189.964844 219.027344 187.5 219.027344 " fill-opacity="1" fill-rule="nonzero"/><path fill="#d3ae8b" d="M 219.820312 215.753906 C 219.363281 214.960938 219.242188 214.042969 219.480469 213.160156 C 219.640625 212.558594 219.960938 212.03125 220.398438 211.609375 C 219.808594 213.847656 221.269531 216.578125 223.84375 217.277344 C 223.5 217.386719 223.148438 217.464844 222.785156 217.464844 C 221.566406 217.464844 220.429688 216.808594 219.820312 215.753906 Z M 226.652344 211.8125 C 225.859375 210.429688 224.371094 209.574219 222.78125 209.574219 C 222 209.574219 221.226562 209.78125 220.546875 210.175781 C 219.511719 210.769531 218.773438 211.734375 218.464844 212.886719 C 218.15625 214.042969 218.316406 215.246094 218.910156 216.277344 C 219.707031 217.65625 221.191406 218.515625 222.785156 218.515625 C 223.566406 218.515625 224.335938 218.308594 225.015625 217.917969 C 226.050781 217.316406 226.789062 216.355469 227.101562 215.199219 C 227.40625 214.046875 227.246094 212.84375 226.652344 211.8125 " fill-opacity="1" fill-rule="nonzero"/><path fill="#d3ae8b" d="M 246.898438 191.179688 C 245.375 190.296875 244.804688 188.417969 245.496094 186.84375 C 246.535156 188.636719 249.175781 190.246094 251.351562 190.226562 C 250.351562 191.5625 248.375 192.027344 246.898438 191.179688 Z M 250.84375 184.347656 C 250.164062 183.953125 249.394531 183.746094 248.613281 183.746094 C 247.019531 183.746094 245.535156 184.601562 244.738281 185.980469 C 243.507812 188.113281 244.242188 190.855469 246.375 192.085938 C 247.054688 192.480469 247.824219 192.691406 248.605469 192.691406 C 250.195312 192.691406 251.683594 191.832031 252.480469 190.453125 C 253.710938 188.316406 252.976562 185.578125 250.84375 184.347656 " fill-opacity="1" fill-rule="nonzero"/><path fill="#d3ae8b" d="M 258.0625 156.355469 C 256.179688 156.355469 254.644531 154.820312 254.644531 152.9375 L 261.480469 152.9375 C 261.480469 154.820312 259.949219 156.355469 258.0625 156.355469 Z M 258.0625 148.46875 C 255.597656 148.46875 253.59375 150.472656 253.59375 152.9375 C 253.59375 155.402344 255.597656 157.40625 258.0625 157.40625 C 260.527344 157.40625 262.53125 155.402344 262.53125 152.9375 C 262.53125 150.472656 260.527344 148.46875 258.0625 148.46875 " fill-opacity="1" fill-rule="nonzero"/><path fill="#d3ae8b" d="M 251.910156 118.539062 C 251.675781 119.417969 251.109375 120.160156 250.316406 120.613281 C 248.734375 121.527344 246.550781 120.933594 245.648438 119.363281 C 245.585938 119.257812 245.550781 119.148438 245.5 119.042969 C 246.582031 117.21875 249.378906 115.554688 251.292969 115.585938 C 251.386719 115.703125 251.496094 115.8125 251.570312 115.945312 C 252.027344 116.734375 252.148438 117.65625 251.910156 118.539062 Z M 252.480469 115.417969 C 251.683594 114.042969 250.199219 113.1875 248.605469 113.1875 C 247.828125 113.1875 247.054688 113.394531 246.375 113.785156 C 244.242188 115.015625 243.507812 117.753906 244.738281 119.886719 C 245.53125 121.269531 247.015625 122.125 248.609375 122.125 C 249.390625 122.125 250.164062 121.917969 250.839844 121.523438 C 251.875 120.929688 252.617188 119.964844 252.925781 118.8125 C 253.234375 117.660156 253.078125 116.453125 252.480469 115.417969 " fill-opacity="1" fill-rule="nonzero"/><path fill="#d3ae8b" d="M 225.742188 93.539062 C 225.132812 94.59375 224 95.25 222.78125 95.25 C 222.183594 95.25 221.59375 95.089844 221.074219 94.789062 C 220.769531 94.613281 220.515625 94.390625 220.289062 94.144531 C 219.652344 91.875 221.21875 89.085938 223.621094 88.519531 C 223.921875 88.59375 224.21875 88.710938 224.488281 88.867188 C 225.28125 89.328125 225.847656 90.0625 226.085938 90.945312 C 226.320312 91.828125 226.199219 92.746094 225.742188 93.539062 Z M 227.101562 90.671875 C 226.789062 89.519531 226.050781 88.554688 225.015625 87.960938 C 224.335938 87.566406 223.566406 87.359375 222.785156 87.359375 C 221.191406 87.359375 219.707031 88.214844 218.910156 89.59375 C 217.679688 91.730469 218.414062 94.46875 220.546875 95.699219 C 221.226562 96.089844 222 96.300781 222.78125 96.300781 C 224.371094 96.300781 225.859375 95.441406 226.652344 94.0625 C 227.246094 93.027344 227.40625 91.828125 227.101562 90.671875 " fill-opacity="1" fill-rule="nonzero"/><path fill="#d3ae8b" d="M 187.5 78.957031 C 185.617188 78.957031 184.082031 80.492188 184.082031 82.375 C 184.082031 84.261719 185.617188 85.792969 187.5 85.792969 C 189.382812 85.792969 190.917969 84.261719 190.917969 82.375 C 190.917969 80.492188 189.382812 78.957031 187.5 78.957031 Z M 187.5 86.84375 C 185.035156 86.84375 183.03125 84.839844 183.03125 82.375 C 183.03125 79.910156 185.035156 77.910156 187.5 77.910156 C 189.964844 77.910156 191.96875 79.910156 191.96875 82.375 C 191.96875 84.839844 189.964844 86.84375 187.5 86.84375 " fill-opacity="1" fill-rule="nonzero"/><g clip-path="url(#fb8513c86d)"><path fill="#d3ae8b" d="M 298.773438 181.933594 L 289.855469 180.363281 L 298.363281 183.460938 L 260.277344 193.664062 L 254.148438 170.796875 L 270.890625 154.050781 Z M 273.625 202.660156 C 271.285156 206.710938 268.648438 210.59375 265.792969 214.246094 L 260.683594 195.191406 L 279.738281 190.085938 C 278.007812 194.375 275.964844 198.601562 273.625 202.660156 Z M 269.367188 233.683594 L 262.425781 227.863281 L 268.246094 234.800781 L 230.160156 224.597656 L 236.292969 201.722656 L 259.164062 195.597656 Z M 237.21875 239.0625 C 233.171875 241.398438 228.945312 243.441406 224.648438 245.179688 L 229.753906 226.117188 L 248.808594 231.226562 C 245.160156 234.078125 241.277344 236.71875 237.21875 239.0625 Z M 218.027344 263.796875 L 214.921875 255.289062 L 216.496094 264.210938 L 188.613281 236.328125 L 205.359375 219.582031 L 228.230469 225.710938 Z M 173.546875 251.390625 L 187.5 237.441406 L 201.449219 251.386719 C 192.273438 252.675781 182.714844 252.675781 173.546875 251.390625 Z M 158.503906 264.210938 L 160.070312 255.285156 L 156.976562 263.796875 L 146.769531 225.710938 L 169.644531 219.582031 L 186.386719 236.328125 Z M 137.769531 239.058594 C 133.71875 236.71875 129.835938 234.078125 126.1875 231.226562 L 145.246094 226.117188 L 150.351562 245.179688 C 146.054688 243.441406 141.828125 241.398438 137.769531 239.058594 Z M 106.753906 234.804688 L 112.570312 227.859375 L 105.632812 233.683594 L 115.835938 195.597656 L 138.710938 201.722656 L 144.839844 224.597656 Z M 101.371094 202.65625 C 99.035156 198.609375 96.992188 194.382812 95.253906 190.082031 L 114.316406 195.191406 L 109.210938 214.246094 C 106.359375 210.601562 103.71875 206.71875 101.371094 202.65625 Z M 76.632812 183.460938 L 85.144531 180.355469 L 76.226562 181.933594 L 104.109375 154.050781 L 120.855469 170.796875 L 114.722656 193.664062 Z M 102.996094 152.9375 L 89.039062 166.890625 C 88.394531 162.3125 88.050781 157.625 88.050781 152.929688 C 88.050781 148.261719 88.394531 143.582031 89.039062 138.980469 Z M 76.226562 123.9375 L 85.148438 125.503906 L 76.636719 122.410156 L 114.722656 112.207031 L 120.855469 135.078125 L 104.109375 151.820312 Z M 101.375 103.210938 C 103.707031 99.171875 106.347656 95.289062 109.207031 91.621094 L 114.316406 110.683594 L 95.253906 115.792969 C 96.992188 111.488281 99.039062 107.257812 101.375 103.210938 Z M 105.632812 72.1875 L 112.574219 78.003906 L 106.753906 71.070312 L 144.839844 81.273438 L 138.710938 104.148438 L 115.835938 110.273438 Z M 137.777344 66.808594 C 141.820312 64.472656 146.050781 62.429688 150.355469 60.6875 L 145.246094 79.753906 L 126.183594 74.644531 C 129.847656 71.789062 133.730469 69.144531 137.777344 66.808594 Z M 156.976562 42.074219 L 160.074219 50.578125 L 158.503906 41.664062 L 186.386719 69.546875 L 169.644531 86.289062 L 146.769531 80.160156 Z M 201.453125 54.476562 L 187.5 68.433594 L 173.546875 54.476562 C 182.746094 53.1875 192.246094 53.1875 201.453125 54.476562 Z M 216.496094 41.664062 L 214.929688 50.578125 L 218.027344 42.074219 L 228.230469 80.160156 L 205.359375 86.289062 L 188.613281 69.546875 Z M 237.230469 66.8125 C 241.257812 69.136719 245.140625 71.773438 248.820312 74.644531 L 229.753906 79.753906 L 224.648438 60.695312 C 228.957031 62.433594 233.1875 64.480469 237.230469 66.8125 Z M 268.246094 71.070312 L 262.429688 78.007812 L 269.367188 72.1875 L 259.164062 110.273438 L 236.292969 104.148438 L 230.160156 81.273438 Z M 273.628906 103.214844 C 275.960938 107.253906 278.003906 111.484375 279.746094 115.792969 L 260.683594 110.683594 L 265.792969 91.625 C 268.648438 95.28125 271.289062 99.164062 273.628906 103.214844 Z M 249.363281 152.9375 L 253.679688 136.835938 L 269.777344 152.9375 L 253.679688 169.039062 Z M 241.074219 183.867188 L 252.859375 172.082031 L 258.753906 194.074219 L 236.761719 199.96875 Z M 220.660156 204.28125 L 238.84375 186.097656 L 235.003906 200.4375 Z M 218.429688 206.511719 L 234.53125 202.195312 L 228.636719 224.191406 L 206.644531 218.296875 Z M 190.542969 213.980469 L 215.386719 207.324219 L 204.886719 217.828125 Z M 187.5 214.796875 L 203.601562 219.113281 L 187.5 235.210938 L 171.398438 219.113281 Z M 159.613281 207.324219 L 184.457031 213.980469 L 170.113281 217.828125 Z M 156.570312 206.511719 L 168.355469 218.296875 L 146.363281 224.191406 L 140.46875 202.195312 Z M 136.152344 186.097656 L 154.339844 204.28125 L 139.996094 200.4375 Z M 122.140625 172.082031 L 133.925781 183.867188 L 138.242188 199.96875 L 116.246094 194.074219 Z M 125.636719 152.9375 L 121.324219 169.039062 L 105.222656 152.9375 L 121.324219 136.835938 Z M 133.925781 122.007812 L 122.140625 133.792969 L 116.246094 111.796875 L 138.242188 105.902344 Z M 154.339844 101.589844 L 136.152344 119.777344 L 139.996094 105.433594 Z M 156.570312 99.363281 L 140.46875 103.675781 L 146.363281 81.683594 L 168.355469 87.574219 Z M 184.457031 91.894531 L 159.613281 98.546875 L 170.113281 88.046875 Z M 187.5 91.074219 L 171.398438 86.761719 L 187.5 70.660156 L 203.601562 86.761719 Z M 215.386719 98.546875 L 190.542969 91.894531 L 204.886719 88.046875 Z M 218.429688 99.363281 L 206.644531 87.574219 L 228.636719 81.683594 L 234.53125 103.675781 Z M 238.84375 119.777344 L 220.660156 101.589844 L 235.003906 105.433594 Z M 241.074219 122.007812 L 236.761719 105.902344 L 258.753906 111.796875 L 252.859375 133.792969 Z M 241.890625 125.046875 L 252.390625 135.550781 L 248.546875 149.894531 Z M 248.546875 155.980469 L 252.390625 170.324219 L 241.890625 180.824219 Z M 127.269531 152.9375 L 135.339844 122.820312 L 157.386719 100.773438 L 187.5 92.707031 L 217.617188 100.773438 L 239.664062 122.820312 L 247.730469 152.9375 L 239.664062 183.050781 L 217.617188 205.09375 L 187.5 213.167969 L 157.386719 205.09375 L 135.339844 183.050781 Z M 122.613281 135.550781 L 133.109375 125.046875 L 126.453125 149.894531 Z M 133.109375 180.824219 L 122.613281 170.324219 L 126.453125 155.980469 Z M 286.949219 152.9375 C 286.949219 157.609375 286.601562 162.296875 285.960938 166.890625 L 272.007812 152.9375 L 285.957031 138.984375 C 286.601562 143.566406 286.949219 148.25 286.949219 152.9375 Z M 298.359375 122.410156 L 289.855469 125.515625 L 298.773438 123.941406 L 270.890625 151.820312 L 254.148438 135.078125 L 260.277344 112.207031 Z M 288.523438 152.9375 C 288.523438 147.773438 288.125 142.613281 287.355469 137.589844 L 302.9375 122.003906 L 281.660156 116.304688 C 279.796875 111.542969 277.5625 106.878906 274.996094 102.425781 C 272.417969 97.96875 269.492188 93.695312 266.304688 89.714844 L 272.007812 68.433594 L 250.730469 74.132812 C 246.722656 70.929688 242.449219 68.003906 238.019531 65.445312 C 233.566406 62.878906 228.894531 60.644531 224.136719 58.785156 L 218.433594 37.5 L 202.855469 53.078125 C 192.746094 51.539062 182.246094 51.539062 172.144531 53.078125 L 156.570312 37.5 L 150.867188 58.777344 C 146.113281 60.632812 141.441406 62.871094 136.988281 65.441406 C 132.53125 68.015625 128.257812 70.941406 124.273438 74.132812 L 102.996094 68.433594 L 108.699219 89.707031 C 105.5 93.707031 102.578125 97.976562 100.011719 102.421875 C 97.4375 106.878906 95.199219 111.550781 93.339844 116.304688 L 72.0625 122.003906 L 87.640625 137.582031 C 86.875 142.632812 86.476562 147.789062 86.472656 152.929688 C 86.476562 158.097656 86.875 163.261719 87.640625 168.289062 L 72.0625 183.867188 L 93.34375 189.570312 C 95.199219 194.316406 97.433594 198.984375 100.003906 203.445312 C 102.59375 207.917969 105.515625 212.1875 108.699219 216.160156 L 102.996094 237.441406 L 124.273438 231.742188 C 128.25 234.921875 132.519531 237.84375 136.980469 240.421875 C 141.449219 243 146.121094 245.234375 150.867188 247.089844 L 156.570312 268.375 L 172.148438 252.792969 C 177.175781 253.558594 182.335938 253.957031 187.492188 253.957031 C 192.652344 253.957031 197.8125 253.558594 202.851562 252.789062 L 218.433594 268.375 L 224.132812 247.09375 C 228.882812 245.234375 233.550781 243 238.007812 240.425781 C 242.480469 237.84375 246.75 234.921875 250.71875 231.742188 L 272.007812 237.441406 L 266.304688 216.160156 C 269.488281 212.179688 272.414062 207.910156 274.988281 203.453125 C 277.570312 198.976562 279.804688 194.308594 281.652344 189.570312 L 302.9375 183.867188 L 287.359375 168.289062 C 288.125 163.242188 288.523438 158.082031 288.523438 152.9375 " fill-opacity="1" fill-rule="nonzero"/></g><g fill="#d3ae8b" fill-opacity="1"><g transform="translate(108.645193, 305.498411)"><g><path d="M 0.828125 0 L 0.828125 -0.640625 C 1.203125 -0.640625 1.46875 -0.769531 1.625 -1.03125 C 1.789062 -1.300781 1.875 -1.789062 1.875 -2.5 L 1.875 -11.25 C 1.875 -11.957031 1.789062 -12.441406 1.625 -12.703125 C 1.46875 -12.960938 1.203125 -13.09375 0.828125 -13.09375 L 0.828125 -13.75 L 6.984375 -13.75 C 7.710938 -13.75 8.410156 -13.726562 9.078125 -13.6875 C 9.742188 -13.644531 10.34375 -13.519531 10.875 -13.3125 C 11.414062 -13.113281 11.835938 -12.785156 12.140625 -12.328125 C 12.441406 -11.878906 12.59375 -11.25 12.59375 -10.4375 C 12.59375 -9.601562 12.398438 -8.945312 12.015625 -8.46875 C 11.640625 -7.988281 11.160156 -7.625 10.578125 -7.375 C 11.273438 -7.132812 11.878906 -6.726562 12.390625 -6.15625 C 12.898438 -5.59375 13.15625 -4.773438 13.15625 -3.703125 C 13.15625 -2.804688 12.984375 -2.101562 12.640625 -1.59375 C 12.296875 -1.082031 11.835938 -0.71875 11.265625 -0.5 C 10.691406 -0.28125 10.066406 -0.140625 9.390625 -0.078125 C 8.722656 -0.0234375 8.054688 0 7.390625 0 Z M 4.578125 -7.859375 L 6.546875 -7.859375 C 7.265625 -7.859375 7.875 -7.914062 8.375 -8.03125 C 8.875 -8.144531 9.25 -8.375 9.5 -8.71875 C 9.757812 -9.070312 9.890625 -9.585938 9.890625 -10.265625 C 9.890625 -10.960938 9.773438 -11.484375 9.546875 -11.828125 C 9.316406 -12.171875 8.960938 -12.398438 8.484375 -12.515625 C 8.003906 -12.628906 7.382812 -12.6875 6.625 -12.6875 L 4.578125 -12.6875 Z M 4.578125 -1.0625 L 7.171875 -1.0625 C 8.316406 -1.0625 9.148438 -1.273438 9.671875 -1.703125 C 10.191406 -2.140625 10.453125 -2.878906 10.453125 -3.921875 C 10.453125 -4.960938 10.164062 -5.703125 9.59375 -6.140625 C 9.019531 -6.585938 8.191406 -6.8125 7.109375 -6.8125 L 4.578125 -6.8125 Z M 4.578125 -1.0625 "/></g></g></g><g fill="#d3ae8b" fill-opacity="1"><g transform="translate(123.682342, 305.498411)"><g><path d="M 0.828125 0 L 0.828125 -0.640625 C 1.203125 -0.640625 1.46875 -0.769531 1.625 -1.03125 C 1.789062 -1.300781 1.875 -1.789062 1.875 -2.5 L 1.875 -11.25 C 1.875 -11.957031 1.789062 -12.441406 1.625 -12.703125 C 1.46875 -12.960938 1.203125 -13.09375 0.828125 -13.09375 L 0.828125 -13.75 L 5.625 -13.75 L 5.625 -13.09375 C 5.25 -13.09375 4.976562 -12.960938 4.8125 -12.703125 C 4.65625 -12.441406 4.578125 -11.957031 4.578125 -11.25 L 4.578125 -2.5 C 4.578125 -1.789062 4.65625 -1.300781 4.8125 -1.03125 C 4.976562 -0.769531 5.25 -0.640625 5.625 -0.640625 L 5.625 0 Z M 0.828125 0 "/></g></g></g><g fill="#d3ae8b" fill-opacity="1"><g transform="translate(131.180392, 305.498411)"><g><path d="M 0.828125 0 L 0.828125 -0.640625 C 1.203125 -0.640625 1.46875 -0.769531 1.625 -1.03125 C 1.789062 -1.300781 1.875 -1.789062 1.875 -2.5 L 1.875 -11.25 C 1.875 -11.957031 1.789062 -12.441406 1.625 -12.703125 C 1.46875 -12.960938 1.203125 -13.09375 0.828125 -13.09375 L 0.828125 -13.75 L 6.703125 -13.75 C 7.203125 -13.75 7.75 -13.722656 8.34375 -13.671875 C 8.9375 -13.617188 9.5 -13.492188 10.03125 -13.296875 C 10.5625 -13.109375 11 -12.789062 11.34375 -12.34375 C 11.695312 -11.90625 11.875 -11.289062 11.875 -10.5 C 11.875 -9.820312 11.742188 -9.269531 11.484375 -8.84375 C 11.222656 -8.414062 10.878906 -8.09375 10.453125 -7.875 C 10.035156 -7.65625 9.585938 -7.488281 9.109375 -7.375 C 9.671875 -7.070312 10.171875 -6.660156 10.609375 -6.140625 C 11.054688 -5.617188 11.382812 -4.925781 11.59375 -4.0625 C 11.84375 -3.09375 12.109375 -2.363281 12.390625 -1.875 C 12.679688 -1.382812 13 -1.054688 13.34375 -0.890625 C 13.695312 -0.722656 14.082031 -0.640625 14.5 -0.640625 L 14.5 0 C 13.757812 0 13.066406 -0.03125 12.421875 -0.09375 C 11.785156 -0.164062 11.210938 -0.3125 10.703125 -0.53125 C 10.191406 -0.757812 9.757812 -1.101562 9.40625 -1.5625 C 9.0625 -2.03125 8.816406 -2.671875 8.671875 -3.484375 C 8.515625 -4.253906 8.359375 -4.882812 8.203125 -5.375 C 8.054688 -5.863281 7.859375 -6.234375 7.609375 -6.484375 C 7.359375 -6.742188 7.015625 -6.914062 6.578125 -7 C 6.140625 -7.09375 5.566406 -7.140625 4.859375 -7.140625 L 4.578125 -7.140625 L 4.578125 -2.5 C 4.578125 -1.789062 4.65625 -1.300781 4.8125 -1.03125 C 4.976562 -0.769531 5.25 -0.640625 5.625 -0.640625 L 5.625 0 Z M 4.578125 -8.1875 L 6.6875 -8.1875 C 7.488281 -8.1875 8.101562 -8.363281 8.53125 -8.71875 C 8.957031 -9.082031 9.171875 -9.644531 9.171875 -10.40625 C 9.171875 -11.175781 8.957031 -11.75 8.53125 -12.125 C 8.101562 -12.5 7.488281 -12.6875 6.6875 -12.6875 L 4.578125 -12.6875 Z M 4.578125 -8.1875 "/></g></g></g><g fill="#d3ae8b" fill-opacity="1"><g transform="translate(146.925628, 305.498411)"><g><path d="M 4.796875 0 L 4.796875 -0.640625 C 5.171875 -0.640625 5.4375 -0.769531 5.59375 -1.03125 C 5.75 -1.300781 5.828125 -1.789062 5.828125 -2.5 L 5.828125 -12.6875 L 3.359375 -12.6875 C 2.628906 -12.6875 2.117188 -12.515625 1.828125 -12.171875 C 1.535156 -11.828125 1.34375 -11.289062 1.25 -10.5625 L 0.625 -10.625 L 0.890625 -13.390625 L 0.9375 -13.75 L 13.4375 -13.75 L 13.46875 -13.390625 L 13.765625 -10.625 L 13.125 -10.5625 C 13.039062 -11.289062 12.851562 -11.828125 12.5625 -12.171875 C 12.269531 -12.515625 11.757812 -12.6875 11.03125 -12.6875 L 8.546875 -12.6875 L 8.546875 -2.5 C 8.546875 -1.789062 8.628906 -1.300781 8.796875 -1.03125 C 8.960938 -0.769531 9.222656 -0.640625 9.578125 -0.640625 L 9.578125 0 Z M 4.796875 0 "/></g></g></g><g fill="#d3ae8b" fill-opacity="1"><g transform="translate(162.358479, 305.498411)"><g><path d="M 0.828125 0 L 0.828125 -0.640625 C 1.203125 -0.640625 1.46875 -0.769531 1.625 -1.03125 C 1.789062 -1.300781 1.875 -1.789062 1.875 -2.5 L 1.875 -11.25 C 1.875 -11.957031 1.789062 -12.441406 1.625 -12.703125 C 1.46875 -12.960938 1.203125 -13.09375 0.828125 -13.09375 L 0.828125 -13.75 L 5.625 -13.75 L 5.625 -13.09375 C 5.25 -13.09375 4.976562 -12.960938 4.8125 -12.703125 C 4.65625 -12.441406 4.578125 -11.957031 4.578125 -11.25 L 4.578125 -8.046875 L 11.59375 -8.046875 L 11.59375 -11.25 C 11.59375 -11.957031 11.515625 -12.441406 11.359375 -12.703125 C 11.203125 -12.960938 10.9375 -13.09375 10.5625 -13.09375 L 10.5625 -13.75 L 15.34375 -13.75 L 15.34375 -13.09375 C 14.96875 -13.09375 14.703125 -12.960938 14.546875 -12.703125 C 14.390625 -12.441406 14.3125 -11.957031 14.3125 -11.25 L 14.3125 -2.5 C 14.3125 -1.789062 14.390625 -1.300781 14.546875 -1.03125 C 14.703125 -0.769531 14.96875 -0.640625 15.34375 -0.640625 L 15.34375 0 L 10.5625 0 L 10.5625 -0.640625 C 10.9375 -0.640625 11.203125 -0.769531 11.359375 -1.03125 C 11.515625 -1.300781 11.59375 -1.789062 11.59375 -2.5 L 11.59375 -7 L 4.578125 -7 L 4.578125 -2.5 C 4.578125 -1.789062 4.65625 -1.300781 4.8125 -1.03125 C 4.976562 -0.769531 5.25 -0.640625 5.625 -0.640625 L 5.625 0 Z M 0.828125 0 "/></g></g></g><g fill="#d3ae8b" fill-opacity="1"><g transform="translate(179.582386, 305.498411)"><g/></g></g><g fill="#d3ae8b" fill-opacity="1"><g transform="translate(185.039471, 305.498411)"><g><path d="M 7.578125 0.203125 C 5.285156 0.203125 3.585938 -0.414062 2.484375 -1.65625 C 1.378906 -2.894531 0.828125 -4.632812 0.828125 -6.875 C 0.828125 -9.101562 1.414062 -10.835938 2.59375 -12.078125 C 3.769531 -13.328125 5.503906 -13.953125 7.796875 -13.953125 C 9.691406 -13.953125 11.140625 -13.503906 12.140625 -12.609375 C 13.148438 -11.710938 13.628906 -10.472656 13.578125 -8.890625 L 10.875 -9.3125 C 10.976562 -10.394531 10.78125 -11.257812 10.28125 -11.90625 C 9.789062 -12.5625 8.960938 -12.890625 7.796875 -12.890625 C 6.773438 -12.890625 5.953125 -12.640625 5.328125 -12.140625 C 4.703125 -11.648438 4.25 -10.953125 3.96875 -10.046875 C 3.6875 -9.148438 3.546875 -8.09375 3.546875 -6.875 C 3.546875 -5.65625 3.671875 -4.59375 3.921875 -3.6875 C 4.171875 -2.78125 4.585938 -2.082031 5.171875 -1.59375 C 5.765625 -1.101562 6.566406 -0.859375 7.578125 -0.859375 C 8.859375 -0.859375 9.753906 -1.191406 10.265625 -1.859375 C 10.773438 -2.535156 10.976562 -3.460938 10.875 -4.640625 L 13.578125 -5.0625 C 13.628906 -3.382812 13.140625 -2.085938 12.109375 -1.171875 C 11.085938 -0.253906 9.578125 0.203125 7.578125 0.203125 Z M 7.578125 0.203125 "/></g></g></g><g fill="#d3ae8b" fill-opacity="1"><g transform="translate(200.493147, 305.498411)"><g><path d="M 0.828125 0 L 0.828125 -0.640625 C 1.203125 -0.640625 1.46875 -0.769531 1.625 -1.03125 C 1.789062 -1.300781 1.875 -1.789062 1.875 -2.5 L 1.875 -11.25 C 1.875 -11.957031 1.789062 -12.441406 1.625 -12.703125 C 1.46875 -12.960938 1.203125 -13.09375 0.828125 -13.09375 L 0.828125 -13.75 L 5.625 -13.75 L 5.625 -13.09375 C 5.25 -13.09375 4.976562 -12.960938 4.8125 -12.703125 C 4.65625 -12.441406 4.578125 -11.957031 4.578125 -11.25 L 4.578125 -8.046875 L 11.59375 -8.046875 L 11.59375 -11.25 C 11.59375 -11.957031 11.515625 -12.441406 11.359375 -12.703125 C 11.203125 -12.960938 10.9375 -13.09375 10.5625 -13.09375 L 10.5625 -13.75 L 15.34375 -13.75 L 15.34375 -13.09375 C 14.96875 -13.09375 14.703125 -12.960938 14.546875 -12.703125 C 14.390625 -12.441406 14.3125 -11.957031 14.3125 -11.25 L 14.3125 -2.5 C 14.3125 -1.789062 14.390625 -1.300781 14.546875 -1.03125 C 14.703125 -0.769531 14.96875 -0.640625 15.34375 -0.640625 L 15.34375 0 L 10.5625 0 L 10.5625 -0.640625 C 10.9375 -0.640625 11.203125 -0.769531 11.359375 -1.03125 C 11.515625 -1.300781 11.59375 -1.789062 11.59375 -2.5 L 11.59375 -7 L 4.578125 -7 L 4.578125 -2.5 C 4.578125 -1.789062 4.65625 -1.300781 4.8125 -1.03125 C 4.976562 -0.769531 5.25 -0.640625 5.625 -0.640625 L 5.625 0 Z M 0.828125 0 "/></g></g></g><g fill="#d3ae8b" fill-opacity="1"><g transform="translate(217.717054, 305.498411)"><g><path d="M 0.421875 0 L 0.421875 -0.640625 C 0.816406 -0.640625 1.191406 -0.753906 1.546875 -0.984375 C 1.898438 -1.210938 2.210938 -1.65625 2.484375 -2.3125 L 6.375 -11.625 C 6.613281 -12.207031 6.648438 -12.597656 6.484375 -12.796875 C 6.316406 -12.992188 5.882812 -13.09375 5.1875 -13.09375 L 5.1875 -13.75 L 10.1875 -13.75 L 14.953125 -2.3125 C 15.234375 -1.65625 15.546875 -1.210938 15.890625 -0.984375 C 16.234375 -0.753906 16.609375 -0.640625 17.015625 -0.640625 L 17.015625 0 L 10.890625 0 L 10.890625 -0.640625 C 11.628906 -0.640625 12.070312 -0.753906 12.21875 -0.984375 C 12.363281 -1.210938 12.296875 -1.65625 12.015625 -2.3125 L 10.375 -6.25 L 5.265625 -6.25 L 3.625 -2.3125 C 3.363281 -1.65625 3.300781 -1.210938 3.4375 -0.984375 C 3.570312 -0.753906 4.007812 -0.640625 4.75 -0.640625 L 4.75 0 Z M 5.703125 -7.296875 L 9.9375 -7.296875 L 7.828125 -12.375 Z M 5.703125 -7.296875 "/></g></g></g><g fill="#d3ae8b" fill-opacity="1"><g transform="translate(236.190518, 305.498411)"><g><path d="M 0.828125 0 L 0.828125 -0.640625 C 1.203125 -0.640625 1.46875 -0.769531 1.625 -1.03125 C 1.789062 -1.300781 1.875 -1.789062 1.875 -2.5 L 1.875 -11.25 C 1.875 -11.957031 1.789062 -12.441406 1.625 -12.703125 C 1.46875 -12.960938 1.203125 -13.09375 0.828125 -13.09375 L 0.828125 -13.75 L 6.703125 -13.75 C 7.203125 -13.75 7.75 -13.722656 8.34375 -13.671875 C 8.9375 -13.617188 9.5 -13.492188 10.03125 -13.296875 C 10.5625 -13.109375 11 -12.789062 11.34375 -12.34375 C 11.695312 -11.90625 11.875 -11.289062 11.875 -10.5 C 11.875 -9.820312 11.742188 -9.269531 11.484375 -8.84375 C 11.222656 -8.414062 10.878906 -8.09375 10.453125 -7.875 C 10.035156 -7.65625 9.585938 -7.488281 9.109375 -7.375 C 9.671875 -7.070312 10.171875 -6.660156 10.609375 -6.140625 C 11.054688 -5.617188 11.382812 -4.925781 11.59375 -4.0625 C 11.84375 -3.09375 12.109375 -2.363281 12.390625 -1.875 C 12.679688 -1.382812 13 -1.054688 13.34375 -0.890625 C 13.695312 -0.722656 14.082031 -0.640625 14.5 -0.640625 L 14.5 0 C 13.757812 0 13.066406 -0.03125 12.421875 -0.09375 C 11.785156 -0.164062 11.210938 -0.3125 10.703125 -0.53125 C 10.191406 -0.757812 9.757812 -1.101562 9.40625 -1.5625 C 9.0625 -2.03125 8.816406 -2.671875 8.671875 -3.484375 C 8.515625 -4.253906 8.359375 -4.882812 8.203125 -5.375 C 8.054688 -5.863281 7.859375 -6.234375 7.609375 -6.484375 C 7.359375 -6.742188 7.015625 -6.914062 6.578125 -7 C 6.140625 -7.09375 5.566406 -7.140625 4.859375 -7.140625 L 4.578125 -7.140625 L 4.578125 -2.5 C 4.578125 -1.789062 4.65625 -1.300781 4.8125 -1.03125 C 4.976562 -0.769531 5.25 -0.640625 5.625 -0.640625 L 5.625 0 Z M 4.578125 -8.1875 L 6.6875 -8.1875 C 7.488281 -8.1875 8.101562 -8.363281 8.53125 -8.71875 C 8.957031 -9.082031 9.171875 -9.644531 9.171875 -10.40625 C 9.171875 -11.175781 8.957031 -11.75 8.53125 -12.125 C 8.101562 -12.5 7.488281 -12.6875 6.6875 -12.6875 L 4.578125 -12.6875 Z M 4.578125 -8.1875 "/></g></g></g><g fill="#d3ae8b" fill-opacity="1"><g transform="translate(251.935757, 305.498411)"><g><path d="M 4.796875 0 L 4.796875 -0.640625 C 5.171875 -0.640625 5.4375 -0.769531 5.59375 -1.03125 C 5.75 -1.300781 5.828125 -1.789062 5.828125 -2.5 L 5.828125 -12.6875 L 3.359375 -12.6875 C 2.628906 -12.6875 2.117188 -12.515625 1.828125 -12.171875 C 1.535156 -11.828125 1.34375 -11.289062 1.25 -10.5625 L 0.625 -10.625 L 0.890625 -13.390625 L 0.9375 -13.75 L 13.4375 -13.75 L 13.46875 -13.390625 L 13.765625 -10.625 L 13.125 -10.5625 C 13.039062 -11.289062 12.851562 -11.828125 12.5625 -12.171875 C 12.269531 -12.515625 11.757812 -12.6875 11.03125 -12.6875 L 8.546875 -12.6875 L 8.546875 -2.5 C 8.546875 -1.789062 8.628906 -1.300781 8.796875 -1.03125 C 8.960938 -0.769531 9.222656 -0.640625 9.578125 -0.640625 L 9.578125 0 Z M 4.796875 0 "/></g></g></g></svg>